<svg width="587" height="356" viewBox="0 0 587 356" fill="none" xmlns="http://www.w3.org/2000/svg">
<path d="M255.212 161.488L301.276 162.725L307.526 348.842H239.409L255.212 161.488Z" fill="#DFDFE3"/>
<path d="M250.716 183.982C261.749 187.45 273.971 191.541 285.707 191.205C288.486 191.126 297.141 190.086 298.387 187.594" stroke="#190404" stroke-width="4.0169" stroke-linecap="round"/>
<path d="M249.271 206.375C258.192 209.242 267.667 211.431 277.12 211.431C282.484 211.431 287.847 211.431 293.211 211.431C294.383 211.431 295.532 211.538 296.622 211.03C301.498 208.754 308.265 209.13 313.555 208.542" stroke="#190404" stroke-width="4.0169" stroke-linecap="round"/>
<path d="M245.661 229.488C252.175 231.66 260.412 234.544 267.33 234.544C272.38 234.544 277.26 235.496 282.378 235.226C289.356 234.859 295.886 231.985 302.722 230.933" stroke="#190404" stroke-width="4.0169" stroke-linecap="round"/>
<path d="M239.883 257.66C248.284 257.66 256.366 257.688 264.681 258.944C272.159 260.072 279.239 259.949 286.671 258.342C292.519 257.077 299.041 252.604 304.889 252.604" stroke="#190404" stroke-width="4.0169" stroke-linecap="round"/>
<path d="M242.771 280.049C263.164 292.795 286.308 287.85 308.499 284.383" stroke="#190404" stroke-width="4.0169" stroke-linecap="round"/>
<path d="M242.771 306.051C253.676 308.232 264.57 310.593 275.555 312.351C280.269 313.105 284.312 313.455 288.997 312.632C294.289 311.701 302.198 311.629 306.332 307.495" stroke="#190404" stroke-width="4.0169" stroke-linecap="round"/>
<path d="M261.247 153.897C261.011 155.787 257.407 159.312 255.634 160.839C258.144 164.973 262.086 172.188 276.017 173.246C287.684 174.132 298.171 167.535 300.977 162.907C297.284 161.48 289.663 158.24 288.718 156.704C287.773 155.168 287.635 151.437 287.684 149.763V143.117L300.977 137.504L303.34 121.996V108.556L296.989 91.5713L285.174 80.6426L272.324 91.5713L246.33 106.783L248.25 127.165L260.508 144.446C260.853 146.809 261.483 152.007 261.247 153.897Z" fill="#F7A9A0"/>
<path d="M457.308 155.375C455.679 156.538 433.179 180.085 422.133 191.713L446.843 213.226L461.378 196.946L463.994 187.062C463.122 185.706 461.378 182.644 461.378 181.248C461.378 179.504 457.308 177.469 457.308 175.725C457.308 174.33 452.657 176.306 450.331 177.469C453.626 171.752 460.448 159.794 461.378 157.701C462.541 155.085 459.343 153.922 457.308 155.375Z" fill="#F7A9A0"/>
<path d="M234.584 161.502H255.212L247.02 318.943H255.212L250.661 352.312H141.453C133.263 352.312 132.959 342.301 132.959 337.448C132.959 333.565 138.622 314.797 141.453 305.899C159.25 265.653 196.967 182.736 205.461 173.029C213.955 163.321 228.415 161.299 234.584 161.502Z" fill="#0050EB"/>
<path d="M333.782 178.183C325.045 167.505 307.895 163.825 300.412 163.32L291.135 351.299H347.602L339.242 303.773C342.883 306.301 351.801 311.6 358.354 312.571C364.906 313.541 376.252 304.481 381.106 299.83L449.057 207.913L423.575 185.768L367.758 246.136C360.073 227.934 342.519 188.862 333.782 178.183Z" fill="#0050EB"/>
<path d="M264.711 109.578C270.85 108.932 277.636 93.0981 285.391 86.6366C287.865 89.1144 291.686 95.693 292.812 97.5318C295.059 101.198 301.124 106.2 301.124 107.773C301.124 109.345 301.838 115.467 301.124 121.029C300.722 124.158 298.878 130.237 296.856 134.505C295.238 137.92 290.192 141.918 287.87 143.491V149.783H295.059C299.402 149.783 308.717 149.558 311.233 148.66C314.378 147.536 313.704 141.469 312.805 138.551C312.087 136.216 309.361 121.103 308.088 113.838C307.264 108.447 305.302 96.5858 304.044 92.2727C302.472 86.8813 297.979 79.0189 292.812 74.526C288.679 70.9318 281.655 69.7337 278.66 69.584L267.203 70.9327C263.235 72.5803 255.298 76.1003 255.298 76.9989C255.298 78.1221 247.21 82.3903 246.985 86.6366C246.761 90.883 242.493 97.8905 237.551 101.485C232.608 105.079 233.058 111.594 233.282 115.862C233.507 120.13 231.036 124.847 229.913 127.319C228.79 129.79 224.072 136.754 223.622 138.551C223.173 140.348 232.384 145.29 234.855 146.862C237.326 148.435 247.211 149.783 251.928 149.783C256.645 149.783 259.341 147.986 262.261 148.66C265.182 149.333 272.37 148.21 271.023 145.29C269.944 142.954 264.733 128.142 262.261 121.029C260.764 121.328 257.275 121.747 255.298 121.029C252.827 120.13 251.254 112.717 255.298 109.578C259.341 106.439 258.571 110.224 264.711 109.578Z" fill="black"/>
<circle cx="272.033" cy="60.0949" r="11.5089" fill="black"/>
<path d="M274.42 321.067C270.604 318.311 257.461 318.329 251.366 318.682L245.541 352.313H261.384H269.045C270.264 351.21 273.467 348.831 276.531 348.134C279.595 347.438 279.757 345.639 279.454 344.826C280.685 344.478 283.112 343.319 282.973 341.47C282.834 339.62 278.62 336.106 276.531 334.58H279.454C283.871 337.053 293.392 341.893 296.148 341.47C298.904 341.046 298.71 338.643 298.268 337.495C291.909 333.167 278.235 323.823 274.42 321.067Z" fill="#F7A9A0"/>
<rect x="0.498047" y="348.842" width="551.323" height="6.25915" fill="black"/>
<rect x="416.702" y="61.3867" width="161.526" height="96.5939" rx="7.23042" fill="#BEC3F3"/>
<rect x="357.752" y="206.72" width="158.313" height="93.3804" rx="5.62366" stroke="black" stroke-width="3.21352"/>
<rect x="426.23" y="54.7962" width="158.313" height="93.3804" rx="5.62366" stroke="#9E67F7" stroke-width="3.21352"/>
<rect x="335.938" y="221.924" width="161.526" height="96.5939" rx="7.23042" fill="#9E67F7"/>
<circle cx="370.096" cy="252.604" r="18.6252" fill="#FAFCFE"/>
<path d="M369.988 254.596C373.537 254.596 376.415 251.719 376.415 248.169C376.415 244.62 373.537 241.742 369.988 241.742C366.438 241.742 363.561 244.62 363.561 248.169C363.561 251.719 366.438 254.596 369.988 254.596Z" stroke="#0050EB" stroke-width="1.60676" stroke-miterlimit="10"/>
<path d="M360.247 260.22C361.234 258.51 362.654 257.09 364.364 256.103C366.074 255.115 368.014 254.596 369.988 254.596C371.963 254.596 373.902 255.115 375.612 256.103C377.322 257.09 378.742 258.51 379.729 260.22" stroke="#0050EB" stroke-width="1.60676" stroke-linecap="round" stroke-linejoin="round"/>
<rect x="436.908" y="76.3145" width="55.9369" height="30.1205" rx="3.21352" fill="#F8F8F8"/>
<rect x="397.306" y="236.625" width="79.2051" height="30.1205" rx="3.21352" fill="#F8F8F8"/>
<rect x="436.908" y="111.924" width="55.9369" height="30.1205" rx="4.0169" fill="#F8F8F8"/>
<rect x="502.086" y="76.3145" width="55.9369" height="30.1205" rx="3.21352" fill="#F8F8F8"/>
<rect x="502.086" y="111.924" width="55.9369" height="30.1205" rx="3.21352" fill="#F8F8F8"/>
<rect x="58.0059" y="124.812" width="81.4246" height="56.0514" fill="#0050EB"/>
<path d="M100.571 85.082L58.0215 125.656L140.07 125.657L100.571 85.082Z" fill="#0050EB"/>
<path d="M97.2333 148.06L63.5635 125.614V103.791H132.149V125.614L97.2333 148.06Z" fill="#FFC107"/>
<rect x="444.023" y="84.1406" width="36.1395" height="1.46868" fill="#D9D9D9"/>
<rect x="404.063" y="243.881" width="62.3687" height="1.46868" fill="#D9D9D9"/>
<rect x="444.023" y="120.59" width="36.1395" height="1.46868" fill="#D9D9D9"/>
<rect x="508.856" y="84.1406" width="36.1395" height="1.46868" fill="#D9D9D9"/>
<rect x="508.856" y="120.59" width="36.1395" height="1.46868" fill="#D9D9D9"/>
<rect x="444.023" y="88.7637" width="36.1395" height="1.46868" fill="#D9D9D9"/>
<rect x="404.063" y="248.504" width="62.3687" height="1.46868" fill="#D9D9D9"/>
<rect x="444.023" y="125.213" width="36.1395" height="1.46868" fill="#D9D9D9"/>
<rect x="508.856" y="88.7637" width="36.1395" height="1.46868" fill="#D9D9D9"/>
<rect x="508.856" y="125.213" width="36.1395" height="1.46868" fill="#D9D9D9"/>
<rect x="444.023" y="93.3867" width="25.7427" height="1.46868" fill="#D9D9D9"/>
<rect x="404.063" y="253.125" width="44.426" height="1.46868" fill="#D9D9D9"/>
<rect x="444.023" y="129.836" width="25.7427" height="1.46868" fill="#D9D9D9"/>
<rect x="508.856" y="93.3867" width="25.7427" height="1.46868" fill="#D9D9D9"/>
<rect x="508.856" y="129.836" width="25.7427" height="1.46868" fill="#D9D9D9"/>
<path d="M155.586 274.222C171.533 274.222 184.461 261.295 184.461 245.347C184.461 229.4 171.533 216.473 155.586 216.473C139.639 216.473 126.711 229.4 126.711 245.347C126.711 261.295 139.639 274.222 155.586 274.222Z" fill="#FFC107"/>
<path opacity="0.8" d="M144.757 242.943C146.75 242.943 148.366 241.327 148.366 239.334C148.366 237.341 146.75 235.725 144.757 235.725C142.763 235.725 141.147 237.341 141.147 239.334C141.147 241.327 142.763 242.943 144.757 242.943Z" fill="#F8F8F8"/>
<path opacity="0.8" d="M166.414 242.943C168.407 242.943 170.023 241.327 170.023 239.334C170.023 237.341 168.407 235.725 166.414 235.725C164.421 235.725 162.805 237.341 162.805 239.334C162.805 241.327 164.421 242.943 166.414 242.943Z" fill="#F8F8F8"/>
<path opacity="0.8" d="M168.098 252.568C166.826 254.76 165.001 256.579 162.805 257.843C160.609 259.108 158.12 259.773 155.586 259.773C153.052 259.773 150.562 259.108 148.366 257.843C146.171 256.579 144.345 254.76 143.073 252.568" stroke="#F8F8F8" stroke-width="3.89332" stroke-linecap="round" stroke-linejoin="round"/>
<path d="M53.5947 309.182H104V325.571C104 331.743 101.549 337.662 97.1853 342.026C92.8218 346.39 86.9035 348.842 80.7325 348.842H76.9103C73.8547 348.842 70.8291 348.24 68.0061 347.07C65.1831 345.901 62.6181 344.187 60.4575 342.026C56.0939 337.662 53.6425 331.743 53.6425 325.571V309.182H53.5947Z" fill="#9E67F7"/>
<path d="M63.9156 322.754C61.7519 319.309 58.3192 316.854 54.3601 315.921C52.4057 315.017 50.2126 314.766 48.1047 315.205C45.9968 315.644 44.086 316.749 42.6545 318.357C41.1817 320.025 40.3369 322.154 40.2656 324.378C40.2656 326.446 40.9362 328.458 42.1767 330.112C43.5521 331.798 45.2575 333.185 47.1883 334.187C49.1192 335.19 51.2346 335.787 53.4045 335.942C55.7767 336.256 58.1898 335.935 60.3974 335.012C62.605 334.088 64.528 332.595 65.9701 330.686C67.1168 329.061 64.4412 327.532 63.2945 329.109C62.1775 330.29 60.8379 331.239 59.3526 331.901C57.8674 332.562 56.266 332.923 54.6407 332.963C53.0153 333.003 51.3981 332.721 49.8822 332.134C48.3663 331.546 46.9816 330.664 45.8078 329.539C44.8931 328.777 44.2035 327.78 43.813 326.656C43.4226 325.531 43.3461 324.322 43.5917 323.157C43.8374 321.992 44.396 320.916 45.2075 320.045C46.0189 319.175 47.0523 318.541 48.1967 318.214C49.8082 317.99 51.4503 318.17 52.9745 318.74C56.2744 319.461 59.1579 321.452 61.0012 324.283C61.9568 326.051 64.6323 324.283 63.6767 322.754H63.9156Z" fill="#9E67F7"/>
<path d="M74.2822 303.88H73.9956C70.7466 301.968 69.2178 300.153 69.2178 298.337C69.2178 296.521 72.5623 294.371 75.3334 293.033C77.2444 292.125 79.3945 291.074 79.3467 290.214C79.2989 289.354 78.0567 289.21 76.7189 288.78C74.4412 288.254 72.4355 286.911 71.0812 285.005C69.6956 282.33 70.6512 278.555 74.0911 273.442C74.1936 273.348 74.3245 273.292 74.4629 273.281C74.6012 273.271 74.7392 273.307 74.8546 273.384C74.9701 273.461 75.0563 273.574 75.0998 273.706C75.1433 273.838 75.1414 273.98 75.0945 274.111C71.9411 278.889 70.9855 282.234 72.18 284.48C73.3401 286.073 75.037 287.193 76.9578 287.633C78.7255 288.255 80.2545 288.78 80.3978 290.118C80.5411 291.456 78.2955 292.89 75.62 294.132C72.9444 295.374 70.2689 296.665 70.1734 298.432C70.1734 299.34 70.7944 300.822 74.2822 302.828C74.3356 302.882 74.3781 302.945 74.407 303.015C74.436 303.084 74.4508 303.159 74.4508 303.235C74.4508 303.31 74.436 303.385 74.407 303.455C74.3781 303.524 74.3356 303.587 74.2822 303.641C74.3006 303.719 74.3006 303.801 74.2822 303.88Z" fill="#190404"/>
<path d="M84.5558 305.075H84.2692C81.5619 303.546 80.2719 301.954 80.3992 300.297C80.3992 298.242 83.1225 296.952 85.4637 295.853C86.8014 295.184 88.7126 294.276 88.6648 293.655C88.617 293.034 87.5181 292.891 86.6103 292.556C84.6751 292.18 82.9619 291.066 81.8326 289.45C80.6382 287.204 81.4503 284.051 84.2692 279.894C84.3849 279.783 84.5389 279.721 84.6993 279.721C84.8595 279.721 85.0136 279.783 85.1292 279.894C85.2268 280.007 85.2804 280.151 85.2804 280.3C85.2804 280.449 85.2268 280.593 85.1292 280.706C82.597 284.481 81.7849 287.252 82.7404 289.068C83.7176 290.381 85.1481 291.284 86.7537 291.601C88.2349 292.126 89.5249 292.556 89.6204 293.751C89.716 294.945 87.8526 296.092 85.7026 297.143C83.5526 298.195 81.4503 299.198 81.3548 300.536C81.2592 301.874 81.8326 302.447 84.6037 304.072C84.7013 304.185 84.7549 304.329 84.7549 304.478C84.7549 304.627 84.7013 304.771 84.6037 304.884C84.6 304.95 84.5838 305.015 84.5558 305.075Z" fill="#190404"/>
<path d="M345.689 285.094L324.619 278.353C320.246 276.954 315.567 279.365 314.169 283.738L298.97 331.252C297.571 335.625 299.982 340.305 304.354 341.704L325.424 348.445C329.797 349.844 334.476 347.433 335.875 343.059L351.074 295.546C352.472 291.172 350.062 286.493 345.689 285.094Z" fill="#190404"/>
<path d="M343.89 286.173L325.551 280.306C321.178 278.907 316.499 281.318 315.099 285.691L300.862 330.201C299.464 334.575 301.874 339.254 306.247 340.653L324.586 346.521C328.959 347.92 333.638 345.509 335.037 341.135L349.275 296.625C350.674 292.252 348.263 287.572 343.89 286.173Z" fill="white"/>
<path d="M56.5043 64.5457C56.2398 60.7549 55.7601 56.9823 55.0665 53.2462C54.7324 50.2413 53.5589 47.3909 51.682 45.0215C49.4683 42.7745 46.5234 41.3952 43.3808 41.1336C45.4448 40.444 47.3358 39.3162 48.9239 37.8275C51.3387 35.2138 52.9517 31.9617 53.573 28.4578C54.4378 25.2804 54.8655 21.9999 54.8438 18.707C54.989 24.5634 57.1117 30.1983 60.8662 34.6947C63.2366 36.824 66.1981 38.1826 69.3586 38.5905C66.5509 39.1477 64.0026 40.6066 62.0995 42.7452C60.1974 44.8838 59.0449 47.5853 58.8182 50.4387C57.3294 58.5543 56.8385 64.5597 56.5043 64.5457Z" fill="black"/>
<path d="M372.572 186.837C372.537 184.867 372.391 182.9 372.136 180.946C372.016 179.39 371.467 177.896 370.552 176.632C369.474 175.393 367.968 174.608 366.334 174.435C367.431 174.122 368.445 173.573 369.308 172.828C370.572 171.568 371.474 169.991 371.919 168.263C372.468 166.649 372.763 164.96 372.795 163.255C372.754 166.284 373.723 169.24 375.551 171.655C376.73 172.819 378.231 173.604 379.86 173.909C378.17 174.221 376.636 175.1 375.513 176.401C374.789 177.402 374.308 178.559 374.11 179.778C373.132 183.769 372.761 186.854 372.572 186.837Z" fill="black"/>
<circle cx="368.337" cy="44.1328" r="43.7266" fill="#0050EB"/>
<path d="M371.209 40.8691L363.937 48.1914" stroke="#52D0E1" stroke-width="1.93121" stroke-linecap="round" stroke-linejoin="round"/>
<path d="M363.938 48.195L349.968 39.5946C348.138 38.4676 348.509 35.6875 350.571 35.0869L383.554 25.4937C385.429 24.9468 387.163 26.7094 386.602 28.5917L376.816 61.5404C376.203 63.6044 373.454 63.9594 372.343 62.1183L363.938 48.195" stroke="#FAFCFE" stroke-width="1.93121" stroke-linecap="round" stroke-linejoin="round"/>
</svg>
