<svg width="617" height="292" viewBox="0 0 617 292" fill="none" xmlns="http://www.w3.org/2000/svg">
<g clip-path="url(#clip0_1483_1932)">
<path d="M247.852 77.9062C247.447 74.2908 246.837 70.7015 246.024 67.1557C245.584 64.2948 244.348 61.6155 242.459 59.4245C240.253 57.3642 237.383 56.1632 234.369 56.0393C236.314 55.2967 238.076 54.1419 239.534 52.6541C241.737 50.0569 243.148 46.8814 243.601 43.5048C244.3 40.4307 244.577 37.2756 244.424 34.1267C244.798 39.7227 247.053 45.0274 250.822 49.1774C253.173 51.1189 256.058 52.2994 259.095 52.5625C256.434 53.2084 254.057 54.7063 252.324 56.8284C250.592 58.9505 249.599 61.5809 249.497 64.3194C248.4 72.1421 248.172 77.9062 247.852 77.9062Z" fill="#190404"/>
<path d="M420.201 86.5066C419.826 82.872 419.216 79.2657 418.373 75.7104C417.917 72.8631 416.701 70.192 414.854 67.9792C412.626 65.9324 409.741 64.7483 406.719 64.6397C408.665 63.8773 410.426 62.7075 411.883 61.2087C414.086 58.6116 415.498 55.4361 415.951 52.0594C416.654 48.9861 416.931 45.8304 416.774 42.6814C417.133 48.2808 419.391 53.5899 423.172 57.732C425.533 59.6633 428.41 60.8565 431.444 61.163C428.78 61.7857 426.395 63.2709 424.66 65.3883C422.925 67.5057 421.936 70.1369 421.847 72.8741C420.75 80.6967 420.521 86.5066 420.201 86.5066Z" fill="#190404"/>
<path d="M191.454 96.6624C191.254 94.7863 190.949 92.923 190.54 91.0813C190.294 89.607 189.645 88.2294 188.666 87.1013C187.534 86.0108 186.032 85.3898 184.461 85.363C185.479 84.9717 186.399 84.3628 187.158 83.5789C188.256 82.2706 188.982 80.6904 189.26 79.0042C189.646 77.4187 189.785 75.783 189.671 74.155C189.888 77.0466 191.062 79.7832 193.008 81.932C194.23 82.942 195.726 83.5632 197.304 83.7161C195.72 84.1565 194.333 85.1247 193.373 86.4609C192.768 87.4769 192.408 88.6205 192.322 89.8004C191.728 93.6889 191.636 96.6624 191.454 96.6624Z" fill="#190404"/>
<path d="M592.184 129.508C593.223 135.741 592.396 142.142 589.808 147.906C587.22 153.669 582.986 158.537 577.64 161.898C572.293 165.258 566.073 166.959 559.762 166.789C553.452 166.618 547.332 164.582 542.175 160.937C537.018 157.293 533.053 152.203 530.78 146.307C528.507 140.412 528.028 133.976 529.402 127.808C530.776 121.641 533.942 116.018 538.502 111.648C543.062 107.278 548.811 104.356 555.027 103.25C559.191 102.508 563.462 102.601 567.59 103.523C571.719 104.444 575.624 106.176 579.079 108.618C582.535 111.06 585.472 114.164 587.722 117.75C589.971 121.335 591.488 125.332 592.184 129.508Z" fill="#26C6DA"/>
<path d="M563.62 134.586C563.709 135.164 563.626 135.755 563.381 136.286C563.137 136.816 562.741 137.263 562.244 137.57C561.748 137.877 561.171 138.031 560.588 138.012C560.004 137.993 559.439 137.803 558.963 137.464C558.487 137.126 558.121 136.654 557.911 136.109C557.701 135.563 557.657 134.968 557.783 134.397C557.909 133.827 558.201 133.306 558.621 132.9C559.041 132.494 559.572 132.222 560.146 132.116C560.537 132.044 560.938 132.051 561.326 132.137C561.714 132.223 562.08 132.386 562.404 132.616C562.728 132.847 563.003 133.14 563.211 133.478C563.42 133.816 563.559 134.193 563.62 134.586Z" fill="#190404"/>
<path d="M550.365 126.855C554.615 129.554 557.723 132.345 557.22 133.168C556.717 133.991 552.65 132.39 548.582 129.737C544.515 127.084 541.224 124.247 541.727 123.424C542.229 122.601 546.069 124.202 550.365 126.855Z" fill="#190404"/>
<path d="M569.331 121.823C565.263 126.946 562.613 131.521 563.344 132.116C564.075 132.711 567.914 129.005 571.936 123.927C575.958 118.849 578.7 114.229 577.969 113.634C577.238 113.04 573.307 116.745 569.331 121.823Z" fill="#190404"/>
<path d="M377.376 113.131C377.376 115.556 377.102 117.98 376.919 120.496C376.736 123.012 376.508 125.391 376.279 127.907L376.005 130.56C376.005 131.018 376.005 131.521 376.005 131.978C375.548 136.004 375 140.121 374.314 144.33C373.903 146.983 373.446 149.637 372.989 152.336C372.532 155.035 372.166 156.544 371.709 158.695C371.252 160.845 371.024 162.171 370.612 163.955C369.79 167.524 368.921 171.138 367.916 174.797C366.682 179.372 365.311 184.221 363.711 189.024C363.711 189.711 363.254 190.443 362.98 191.129C361.38 196.069 359.643 200.781 357.861 205.356C356.947 207.781 355.941 209.931 354.982 212.447L358.409 263.088C358.705 267.093 358.705 271.114 358.409 275.119H344.698H278.839H265.996C265.518 271.22 265.32 267.291 265.402 263.362C266.042 247.58 266.682 231.752 267.276 215.969C266.591 214.597 265.859 213.224 265.174 211.76C263.711 208.878 262.34 205.905 260.923 202.84C260.923 202.474 260.603 202.062 260.421 201.696C257.496 195.109 255.028 188.567 252.879 182.117C252.737 181.758 252.615 181.391 252.514 181.019C251.92 179.235 251.417 177.496 250.869 175.804C249.863 172.51 248.949 169.17 248.126 165.968C247.486 163.498 246.892 161.073 246.344 158.695C245.658 155.675 245.064 152.656 244.561 149.545C244.059 146.434 243.327 142.637 242.87 139.298C242.87 137.926 242.459 136.645 242.322 135.318C242.048 133.168 241.819 131.018 241.591 128.959C240.951 123.012 240.585 117.294 240.402 111.804C243.282 110.523 246.664 109.151 250.503 107.733C253.199 106.726 256.124 105.72 259.278 104.759C262.432 103.799 266.088 102.792 269.836 101.923C276.326 100.393 282.905 99.262 289.534 98.5378C295.861 97.8193 302.225 97.4833 308.592 97.5314C316.133 97.6164 323.66 98.1971 331.124 99.2698C337.46 100.175 343.734 101.473 349.908 103.158C352.194 103.738 354.387 104.378 356.49 105.08C363.624 107.292 370.602 109.982 377.376 113.131Z" fill="#F7A9A0"/>
<path d="M332.586 121.503H287.111C288.879 103.204 290.646 84.9053 292.413 66.6067H328.382C329.814 84.8443 331.215 103.143 332.586 121.503Z" fill="#F7A9A0"/>
<path d="M324.635 71.7303C324.635 83.3042 318.373 92.728 310.649 92.728C302.925 92.728 296.664 83.3042 296.664 71.7303C296.664 60.1564 302.925 50.7327 310.649 50.7327C318.373 50.7327 324.635 60.1564 324.635 71.7303Z" fill="#190404"/>
<path d="M309.368 85.317C302.265 85.317 295.453 82.4927 290.43 77.4653C285.408 72.4379 282.586 65.6193 282.586 58.5095V19.2591C290.507 13.941 299.83 11.1013 309.368 11.1013C318.907 11.1013 328.229 13.941 336.151 19.2591V58.5095C336.151 65.6193 333.329 72.4379 328.306 77.4653C323.284 82.4927 316.471 85.317 309.368 85.317Z" fill="#F7A9A0"/>
<path d="M290.859 48.2167C290.615 49.6259 289.974 50.936 289.011 51.9925C288.048 53.0491 286.803 53.8081 285.423 54.18C284.044 54.552 282.587 54.5215 281.224 54.0921C279.861 53.6627 278.649 52.8523 277.731 51.7564C276.812 50.6605 276.226 49.3247 276.042 47.9065C275.857 46.4883 276.081 45.0468 276.687 43.7517C277.293 42.4567 278.257 41.3622 279.464 40.5971C280.672 39.832 282.072 39.4282 283.501 39.4334C285.632 39.6425 287.596 40.6793 288.972 42.3215C290.347 43.9636 291.025 46.0801 290.859 48.2167Z" fill="#F7A9A0"/>
<path d="M342.596 48.2167C342.352 49.6259 341.71 50.936 340.747 51.9925C339.784 53.0491 338.539 53.8081 337.16 54.18C335.78 54.552 334.323 54.5215 332.96 54.0921C331.597 53.6627 330.385 52.8523 329.467 51.7564C328.549 50.6605 327.963 49.3247 327.778 47.9065C327.593 46.4883 327.817 45.0468 328.423 43.7517C329.03 42.4567 329.993 41.3622 331.201 40.5971C332.408 39.832 333.808 39.4282 335.237 39.4334C337.368 39.6425 339.332 40.6793 340.708 42.3215C342.084 43.9636 342.761 46.0801 342.596 48.2167Z" fill="#F7A9A0"/>
<path d="M303.84 122.692C304.358 124.096 305.38 125.258 306.706 125.951C308.032 126.644 309.567 126.82 311.015 126.443C311.661 126.092 312.222 125.603 312.656 125.009C313.091 124.416 313.389 123.734 313.529 123.012L303.84 122.692Z" fill="#190404"/>
<path d="M263.117 122.417C266.492 124.78 270.321 126.416 274.36 127.221C280.422 128.357 286.686 127.623 292.322 125.117L263.117 122.417Z" fill="#190404"/>
<path d="M325.457 125.574C329.264 127.155 333.356 127.934 337.477 127.861C343.631 127.699 349.591 125.674 354.57 122.052L325.457 125.574Z" fill="#190404"/>
<path d="M329.798 42.0866C328.897 41.7809 327.96 41.5963 327.01 41.5377C322.651 41.7103 318.327 42.3857 314.122 43.5505C313.46 42.6261 313.079 41.53 313.025 40.394C313.001 39.3756 313.237 38.368 313.711 37.4662C316.76 37.6206 319.817 37.5288 322.851 37.1918C324.789 36.9407 326.757 37.0492 328.656 37.512C329.427 37.6669 330.158 37.9783 330.804 38.4269C331.481 39.1024 331.997 39.9223 332.314 40.8253C332.63 41.7282 332.739 42.691 332.632 43.642C331.782 42.9677 330.824 42.4418 329.798 42.0866Z" fill="#190404"/>
<path d="M296.435 52.1967C294.763 52.1564 293.144 51.598 291.802 50.5985C290.459 49.599 289.459 48.2075 288.94 46.6156C288.919 46.5465 288.912 46.4739 288.919 46.402C288.926 46.3301 288.947 46.2602 288.981 46.1965C289.015 46.1327 289.061 46.0763 289.117 46.0305C289.172 45.9846 289.237 45.9503 289.306 45.9293C289.374 45.9 289.449 45.8851 289.523 45.8855C289.598 45.8859 289.672 45.9015 289.74 45.9315C289.809 45.9615 289.87 46.0052 289.921 46.0599C289.972 46.1146 290.012 46.1792 290.037 46.2496C290.536 47.7142 291.519 48.9651 292.823 49.7965C294.127 50.6279 295.675 50.9903 297.212 50.8243C298.386 50.6408 299.489 50.1448 300.406 49.3883C301.322 48.6317 302.019 47.6425 302.423 46.5241C302.475 46.381 302.579 46.2632 302.715 46.1952C302.851 46.1271 303.008 46.1138 303.154 46.1581C303.224 46.1833 303.289 46.2226 303.343 46.2737C303.398 46.3247 303.442 46.3864 303.472 46.455C303.502 46.5235 303.517 46.5974 303.518 46.6723C303.518 46.7471 303.503 46.8212 303.474 46.89C303.009 48.2128 302.194 49.3841 301.115 50.2785C300.036 51.173 298.734 51.757 297.35 51.9679L296.435 52.1967Z" fill="#190404"/>
<path d="M322.074 52.1967C320.402 52.1564 318.783 51.598 317.44 50.5985C316.098 49.599 315.098 48.2075 314.579 46.6156C314.558 46.5465 314.55 46.4739 314.557 46.402C314.564 46.3301 314.585 46.2602 314.619 46.1965C314.653 46.1327 314.699 46.0763 314.755 46.0305C314.811 45.9846 314.875 45.9503 314.944 45.9293C315.013 45.9 315.087 45.8851 315.162 45.8855C315.237 45.8859 315.311 45.9015 315.379 45.9315C315.448 45.9615 315.509 46.0052 315.56 46.0599C315.611 46.1146 315.65 46.1792 315.676 46.2496C316.182 47.7095 317.166 48.9555 318.469 49.7857C319.771 50.616 321.315 50.9819 322.851 50.8243C324.025 50.6408 325.128 50.1448 326.044 49.3883C326.961 48.6317 327.658 47.6425 328.061 46.5241C328.113 46.381 328.218 46.2632 328.354 46.1952C328.49 46.1271 328.647 46.1138 328.793 46.1581C328.863 46.1833 328.927 46.2226 328.982 46.2737C329.037 46.3247 329.08 46.3864 329.11 46.455C329.14 46.5235 329.156 46.5974 329.156 46.6723C329.157 46.7471 329.142 46.8212 329.113 46.89C328.648 48.2128 327.832 49.3841 326.753 50.2785C325.675 51.173 324.373 51.757 322.988 51.9679L322.074 52.1967Z" fill="#190404"/>
<path d="M288.163 43.0473C289.054 42.7733 289.975 42.6044 290.905 42.5441C295.269 42.6661 299.6 43.3424 303.794 44.5569C304.482 43.6289 304.865 42.51 304.89 41.3547C304.919 40.3558 304.699 39.3656 304.251 38.4727C301.201 38.604 298.146 38.5122 295.11 38.1981C293.173 37.9224 291.2 38.0312 289.305 38.5184C288.515 38.6548 287.765 38.9675 287.112 39.4333C286.438 40.1019 285.924 40.9139 285.608 41.8089C285.291 42.7039 285.18 43.6589 285.284 44.6027C286.152 43.9304 287.125 43.405 288.163 43.0473Z" fill="#190404"/>
<path d="M306.764 64.0907C307.849 65.0462 309.266 65.5383 310.709 65.4613C312.153 65.3844 313.509 64.7445 314.488 63.679L306.764 64.0907Z" fill="#190404"/>
<path d="M308.318 70.9069C305.625 70.8772 302.972 70.2524 300.548 69.077C300.447 68.9954 300.375 68.8826 300.343 68.7559C300.312 68.6293 300.324 68.496 300.375 68.3764C300.427 68.2568 300.517 68.1576 300.631 68.0941C300.745 68.0306 300.876 68.0063 301.005 68.0249C303.546 69.2735 306.357 69.8708 309.186 69.7633C310.055 69.7633 311.837 69.4431 314.991 68.9856L318.83 68.3909C318.905 68.3779 318.983 68.381 319.057 68.3998C319.131 68.4186 319.201 68.4528 319.261 68.5003C319.321 68.5477 319.371 68.6072 319.407 68.675C319.443 68.7429 319.464 68.8175 319.469 68.8941C319.483 69.0448 319.438 69.195 319.345 69.314C319.251 69.4329 319.116 69.5118 318.967 69.5345L315.173 70.0835L309.232 70.9069H308.318Z" fill="#190404"/>
<path d="M308.134 74.6125C307.997 74.613 307.864 74.5615 307.762 74.4683C307.66 74.375 307.597 74.2468 307.586 74.1093C307.573 74.0337 307.576 73.9562 307.595 73.8818C307.614 73.8074 307.648 73.7377 307.695 73.6774C307.743 73.617 307.802 73.5673 307.87 73.5313C307.938 73.4954 308.012 73.4742 308.089 73.4689L315.401 72.554C315.526 72.5895 315.635 72.6644 315.712 72.7676C315.79 72.8708 315.832 72.9965 315.832 73.1258C315.832 73.255 315.79 73.3807 315.712 73.4839C315.635 73.5871 315.526 73.6621 315.401 73.6976L308.089 74.6125H308.134Z" fill="#190404"/>
<path d="M523.628 89.9833C524.682 84.5131 524.913 78.9159 524.313 73.3773C522.988 61.0258 517.869 53.5691 519.469 52.6084C520.383 52.0137 523.216 57.5948 530.118 63.5876C532.58 65.7704 535.242 67.7157 538.07 69.3974L556.077 63.2674C558.134 61.895 561.105 59.8364 564.532 57.0916C574.542 49.1774 578.701 43.3676 579.706 44.0996C580.712 44.8315 576.324 54.484 571.251 62.3982C567.221 68.6426 562.632 74.5071 557.54 79.9191L526.141 93.6431L523.628 89.9833Z" fill="#F7A9A0"/>
<path d="M463.481 172.83L475.821 148.173C458.134 137.88 442.869 129.874 431.397 124.293C381.58 99.59 365.995 98.858 356.398 104.897C354.913 105.842 353.547 106.963 352.33 108.236L396.617 150.277L463.481 172.83Z" fill="#F7A9A0"/>
<path d="M525.777 76.7168L540.63 85.0426C533.629 95.9717 527.28 107.306 521.618 118.987C510.832 141.357 507.13 155.264 492.733 165.328C488.433 168.332 483.659 170.59 478.61 172.007L457.084 154.852C460.887 148.523 465.214 142.524 470.018 136.919C487.34 116.745 500.183 111.804 515.722 91.1726C519.399 86.5894 522.759 81.7595 525.777 76.7168Z" fill="#F7A9A0"/>
<path d="M475.318 146.297L461.607 177.222L359.094 138.658L344.24 109.974C346.678 105.613 350.185 101.944 354.432 99.3155C360.2 95.8609 366.959 94.4434 373.628 95.2899C395.544 103.602 416.915 113.289 437.613 124.293C451.324 131.567 463.847 138.932 475.318 146.297Z" fill="#D4F4F8"/>
<path d="M539.669 97.8059C537.804 93.4914 534.906 89.7029 531.232 86.7749C527.557 83.8469 523.219 81.8693 518.6 81.0168L453.381 151.695L461.47 177.222C463.676 177.57 465.914 177.678 468.143 177.542C475.358 176.964 482.264 174.364 488.07 170.04C500.867 160.89 510.373 146.068 523.582 123.744C527.192 117.614 532.768 108.648 539.669 97.8059Z" fill="#D4F4F8"/>
<path d="M517.961 177.634C521.14 173.056 523.62 168.03 525.319 162.72C529.113 150.918 527.467 142.043 529.341 141.768C530.392 141.768 530.712 147.898 534.597 156.179C535.969 159.156 537.605 162.004 539.487 164.687L558.454 166.426C560.877 166.014 564.442 165.328 568.692 164.23C581.078 161.073 586.974 157.459 587.842 158.512C588.71 159.564 580.529 166.609 572.623 171.915C566.472 176.019 559.954 179.541 553.153 182.437H518.829L517.961 177.634Z" fill="#F7A9A0"/>
<path d="M429.432 228.915L450.684 211.44C438.71 194.834 427.832 181.385 419.834 171.503C384.277 128.685 370.337 121.685 359.14 123.332C357.402 123.597 355.7 124.058 354.066 124.705C361.836 143.522 369.636 162.339 377.467 181.156L429.432 228.915Z" fill="#F7A9A0"/>
<path d="M525.364 166.426L535.556 180.15C524.711 187.299 514.303 195.09 504.386 203.48C485.465 219.492 476.461 230.7 459.231 234.039C454.064 235.046 448.767 235.185 443.554 234.451C439.35 226.262 435.099 218.119 430.895 209.976C436.934 205.756 443.308 202.039 449.953 198.86C473.993 187.469 487.704 188.155 510.465 175.987C515.628 173.118 520.604 169.925 525.364 166.426Z" fill="#F7A9A0"/>
<path d="M451.004 209.473L425.776 232.347L348.08 155.538L346.16 123.287C350.175 120.27 354.896 118.333 359.871 117.66C366.536 116.833 373.284 118.284 379.021 121.777C395.733 138.29 411.366 155.862 425.822 174.386C435.054 186.28 443.509 198.128 451.004 209.473Z" fill="#D4F4F8"/>
<path d="M529.479 191.312C529.491 188.206 529.013 185.119 528.062 182.163C526.028 176.204 522.175 171.035 517.048 167.386L428.794 205.448L425.777 232.118C427.689 233.3 429.709 234.295 431.81 235.091C438.625 237.477 445.971 237.905 453.017 236.326C468.328 233.399 483.135 223.517 504.251 208.467C509.918 204.395 518.647 198.357 529.479 191.312Z" fill="#D4F4F8"/>
<path d="M404.478 275.897L429.478 264.323C422.074 245.247 415.081 229.51 409.642 217.89C386.059 167.569 374.313 157.231 363.07 155.95C361.324 155.757 359.561 155.757 357.814 155.95L366.224 216.427L404.478 275.897Z" fill="#F7A9A0"/>
<path d="M430.301 262.173L398.309 270.545C380.21 241.572 362.096 212.599 343.967 183.626C346.039 173.044 348.126 162.476 350.228 151.924C354.846 149.992 359.886 149.299 364.853 149.911C371.504 150.832 377.661 153.937 382.358 158.74C394.342 178.945 405.028 199.894 414.35 221.459C420.703 235.869 425.868 249.456 430.301 262.173Z" fill="#D4F4F8"/>
<path d="M505.346 263.82C510.244 261.186 514.726 257.841 518.646 253.893C527.375 245.064 529.889 236.418 531.671 237.012C532.677 237.378 530.163 243.097 529.843 252.246C529.741 255.519 529.925 258.795 530.391 262.036L546.525 272.146C548.901 272.878 552.375 273.884 556.625 274.845C569.102 277.635 576.187 277.178 576.278 278.413C576.369 279.648 566.132 282.347 556.671 283.491C549.331 284.368 541.925 284.552 534.55 284.04L503.975 268.44L505.346 263.82Z" fill="#F7A9A0"/>
<path d="M517.001 257.187C517.96 262.768 518.966 268.395 519.926 273.976C507.024 275.359 494.218 277.529 481.58 280.472C457.494 286.19 444.377 292.091 427.513 287.288C422.452 285.822 417.666 283.535 413.345 280.518L413.07 253.07C420.383 252.056 427.765 251.628 435.145 251.789C461.699 252.521 473.673 259.337 499.496 258.697C505.358 258.592 511.207 258.087 517.001 257.187Z" fill="#F7A9A0"/>
<path d="M509.414 281.249C510.824 278.505 511.795 275.557 512.293 272.512C513.179 266.232 512.076 259.833 509.14 254.213L413.162 248.22L398.445 270.636C399.598 272.569 400.945 274.378 402.467 276.034C407.46 281.219 413.787 284.923 420.749 286.739C435.785 291.039 453.427 288.935 479.067 285.046C486.196 284.086 496.571 282.622 509.414 281.249Z" fill="#D4F4F8"/>
<path d="M101.051 92.9111C100.019 87.4229 99.7883 81.8139 100.366 76.2593C101.691 63.9078 106.81 56.4969 105.21 55.4904C104.342 54.9415 101.463 60.5225 94.5613 66.5153C92.1136 68.6958 89.4663 70.641 86.6545 72.3251L68.6016 66.1493C65.6823 64.2491 62.8604 62.2032 60.1464 60.0193C50.1373 52.1052 45.9783 46.2954 44.9728 47.0273C43.9673 47.7593 48.3548 57.4118 53.4279 65.3259C57.4435 71.5665 62.0339 77.417 67.139 82.801L98.5375 96.525L101.051 92.9111Z" fill="#F7A9A0"/>
<path d="M161.152 175.621L148.812 150.963C166.5 140.67 181.765 132.665 193.237 127.038C243.054 102.381 258.638 101.649 268.236 107.687C269.732 108.618 271.099 109.741 272.304 111.027L228.017 153.068L161.152 175.621Z" fill="#F7A9A0"/>
<path d="M98.8576 79.5073C93.8759 82.2521 88.9399 85.0426 84.0039 87.8332C91.0231 98.7515 97.3724 110.087 103.017 121.777C113.803 144.101 117.505 158.008 131.901 168.118C136.212 171.104 140.983 173.36 146.024 174.797L167.55 157.642C163.747 151.314 159.421 145.315 154.616 139.71C137.294 119.535 124.452 114.595 108.912 93.9632C105.235 89.3799 101.876 84.55 98.8576 79.5073Z" fill="#F7A9A0"/>
<path d="M149.314 149.088L163.026 180.012L265.356 141.494L280.21 112.811C277.786 108.439 274.275 104.768 270.018 102.152C264.259 98.6736 257.492 97.2543 250.822 98.1262C228.906 106.438 207.535 116.125 186.837 127.129C173.309 134.357 160.786 141.723 149.314 149.088Z" fill="#D4F4F8"/>
<path d="M84.873 100.596C86.0827 97.741 87.7671 95.1114 89.8547 92.8195C94.1229 88.176 99.7299 84.9782 105.897 83.6702L171.116 154.394L163.164 179.829C160.955 180.155 158.72 180.262 156.491 180.15C149.276 179.572 142.37 176.972 136.564 172.647C123.767 163.727 114.26 148.676 101.052 126.352C97.4415 120.359 92.0028 111.438 84.873 100.596Z" fill="#D4F4F8"/>
<path d="M106.673 180.424C103.503 175.841 101.024 170.816 99.3148 165.511C95.5214 153.708 97.1667 144.833 95.2928 144.559C94.2416 144.559 93.9218 150.643 90.0369 158.969C88.6834 161.956 87.0457 164.805 85.1466 167.478L66.1796 169.216C63.7573 168.804 60.1924 168.118 55.9419 167.02C43.6019 163.864 37.6605 160.25 36.7921 161.302C35.9237 162.354 44.1047 169.399 52.0114 174.706C58.1608 178.798 64.6792 182.305 71.4812 185.182H105.805L106.673 180.424Z" fill="#F7A9A0"/>
<path d="M195.201 231.706L173.949 214.185C185.924 197.625 196.801 184.175 204.845 174.294C240.357 131.475 254.296 124.476 265.494 126.123C267.237 126.359 268.942 126.821 270.567 127.495C262.797 146.282 254.997 165.099 247.166 183.946L195.201 231.706Z" fill="#F7A9A0"/>
<path d="M99.27 169.216L89.0781 182.94C99.9093 190.092 110.317 197.867 120.248 206.225C139.169 222.282 148.173 233.673 165.403 236.83C170.569 237.849 175.872 237.973 181.08 237.196C185.284 229.053 189.52 220.91 193.785 212.767C187.732 208.545 181.342 204.827 174.681 201.651C150.687 190.26 136.93 190.946 114.169 178.777C109.008 175.906 104.032 172.712 99.27 169.216Z" fill="#F7A9A0"/>
<path d="M173.629 212.264L198.857 234.908L276.554 158.146L278.473 126.123C274.468 123.088 269.743 121.149 264.762 120.496C258.098 119.67 251.35 121.12 245.612 124.613C229.03 141.074 213.505 158.569 199.132 176.993C189.58 188.979 181.124 200.919 173.629 212.264Z" fill="#D4F4F8"/>
<path d="M95.1566 194.102C95.1418 190.997 95.62 187.908 96.5734 184.953C98.6387 178.985 102.543 173.827 107.725 170.223L195.979 208.284L198.995 234.908C197.092 236.118 195.071 237.129 192.962 237.928C186.146 240.367 178.783 240.843 171.71 239.3C156.4 236.326 141.592 226.491 120.476 211.44C114.626 207.277 105.988 201.147 95.1566 194.102Z" fill="#D4F4F8"/>
<path d="M220.156 278.505L195.156 266.748C202.56 247.626 209.553 231.935 214.992 220.315C238.575 169.994 250.321 159.609 261.564 158.374C263.31 158.182 265.073 158.182 266.82 158.374C264.047 178.777 261.289 199.028 258.547 219.126L220.156 278.505Z" fill="#F7A9A0"/>
<path d="M194.561 265.101L226.325 273.472C244.423 244.561 262.537 215.588 280.666 186.554C278.61 175.987 276.507 165.419 274.451 154.852C269.819 152.971 264.788 152.295 259.825 152.885C253.156 153.789 246.979 156.896 242.275 161.714C230.291 181.919 219.605 202.867 210.283 224.432C204.067 238.614 198.826 252.17 194.561 265.101Z" fill="#D4F4F8"/>
<path d="M119.334 266.748C114.413 264.128 109.914 260.781 105.988 256.821C97.259 247.946 94.7454 239.3 92.9629 239.94C91.9575 240.26 94.4711 245.979 94.7911 255.128C94.916 258.417 94.7324 261.709 94.2426 264.964L78.1092 275.074C75.7783 275.806 72.2591 276.812 68.0087 277.773C55.5316 280.563 48.4475 280.106 48.3561 281.341C48.2647 282.576 58.548 285.275 67.963 286.373C75.3019 287.261 82.7077 287.46 90.0836 286.968C100.291 281.753 110.498 276.553 120.705 271.368L119.334 266.748Z" fill="#F7A9A0"/>
<path d="M107.724 259.977C106.764 265.558 105.759 271.139 104.799 276.766C117.7 278.222 130.504 280.437 143.144 283.399C167.23 289.118 180.347 295.065 197.257 290.261C202.301 288.787 207.071 286.5 211.38 283.491L211.654 256.043C204.344 255.005 196.96 254.577 189.579 254.762C163.025 255.448 151.097 262.31 125.274 261.67C119.395 261.459 113.535 260.894 107.724 259.977Z" fill="#F7A9A0"/>
<path d="M115.22 284.04C113.058 279.87 111.952 275.232 112 270.533C112.047 265.835 113.248 261.221 115.495 257.095L211.472 251.103L226.189 273.473C225.04 275.396 223.708 277.203 222.213 278.871C217.233 284.082 210.903 287.804 203.931 289.621C188.895 293.921 171.253 291.771 145.613 287.929C138.483 286.876 128.063 285.412 115.22 284.04Z" fill="#D4F4F8"/>
<path d="M378.518 97.1654V275.165H344.469H278.61H246.617C247.409 262.631 248.156 250.05 248.857 237.424C248.857 236.281 248.857 235.045 248.857 233.856C248.857 231.98 249.085 230.059 249.177 228.138C250.091 212.889 250.989 197.747 251.873 182.711C251.873 182.162 251.873 181.705 251.873 181.156C252.102 177.588 252.33 174.02 252.513 170.451C252.513 169.079 252.513 167.798 252.513 166.426C252.513 165.053 252.513 163.498 252.513 161.851C252.513 159.609 252.513 157.276 252.193 155.035L251.782 146.755C251.508 141.54 251.233 136.324 251.005 131.064C251.005 130.469 251.005 129.874 251.005 129.279L250.685 122.143C250.411 117.568 250.182 112.628 249.954 107.87V105.308C249.954 103.158 249.954 100.962 249.634 98.8123C254.498 95.1437 260.367 93.0525 266.453 92.8195C272.988 92.8195 277.878 95.7472 281.58 92.8195C284.277 90.6694 284.597 86.8724 286.974 86.6895C287.603 86.7381 288.213 86.9278 288.759 87.2445C289.305 87.5613 289.772 87.997 290.127 88.5193C298.753 90.3986 307.612 90.9692 316.407 90.212C320.936 89.8331 325.429 89.0989 329.844 88.0161C331.162 87.6889 332.552 87.8346 333.774 88.4278C335.557 89.48 335.648 91.4014 336.425 92.6365C338.984 96.525 348.994 93.3684 356.626 92.911C364.164 92.4806 371.689 93.9431 378.518 97.1654Z" fill="#D4F4F8"/>
<path d="M211.563 162.126C211.429 162.165 211.286 162.165 211.152 162.126C211.055 162.01 211.002 161.864 211.002 161.714C211.002 161.563 211.055 161.417 211.152 161.302L237.02 131.841C237.13 131.759 237.265 131.717 237.402 131.723C237.539 131.729 237.67 131.782 237.773 131.874C237.875 131.966 237.942 132.09 237.964 132.226C237.985 132.362 237.958 132.501 237.888 132.619L212.02 162.034C211.955 162.082 211.881 162.115 211.802 162.131C211.723 162.147 211.641 162.145 211.563 162.126Z" fill="#190404"/>
<path d="M209.186 223.243H208.867C208.76 223.132 208.701 222.985 208.701 222.831C208.701 222.678 208.76 222.53 208.867 222.419L248.583 169.354C248.694 169.247 248.841 169.188 248.994 169.188C249.148 169.188 249.295 169.247 249.406 169.354C249.502 169.469 249.555 169.615 249.555 169.765C249.555 169.916 249.502 170.062 249.406 170.177L209.689 223.243C209.611 223.283 209.525 223.304 209.438 223.304C209.35 223.304 209.264 223.283 209.186 223.243Z" fill="#190404"/>
<path d="M249.407 237.561C249.249 237.561 249.098 237.499 248.987 237.387C248.875 237.276 248.813 237.125 248.813 236.967V191.861C248.812 191.785 248.828 191.709 248.858 191.64C248.889 191.57 248.933 191.507 248.989 191.455C249.045 191.404 249.111 191.364 249.183 191.34C249.255 191.315 249.331 191.305 249.407 191.312C249.552 191.312 249.692 191.37 249.794 191.473C249.897 191.575 249.955 191.715 249.955 191.861V236.967C249.956 237.117 249.899 237.262 249.798 237.372C249.696 237.482 249.556 237.55 249.407 237.561Z" fill="#190404"/>
<path d="M378.565 239.3C378.407 239.3 378.256 239.237 378.145 239.126C378.033 239.014 377.971 238.863 377.971 238.705V190.305C377.97 190.229 377.986 190.154 378.016 190.084C378.047 190.014 378.091 189.952 378.147 189.9C378.203 189.848 378.269 189.809 378.341 189.784C378.413 189.759 378.489 189.75 378.565 189.756C378.71 189.756 378.85 189.814 378.953 189.917C379.055 190.02 379.113 190.16 379.113 190.305V238.842C379.091 238.972 379.024 239.089 378.924 239.173C378.823 239.257 378.696 239.302 378.565 239.3Z" fill="#190404"/>
<path d="M413.939 221.001C413.748 220.994 413.567 220.912 413.436 220.772L377.97 170.451C377.864 170.341 377.805 170.193 377.805 170.04C377.805 169.886 377.864 169.739 377.97 169.628C378.082 169.543 378.218 169.496 378.359 169.496C378.499 169.496 378.635 169.543 378.747 169.628L414.259 219.949C414.356 220.064 414.409 220.21 414.409 220.361C414.409 220.511 414.356 220.657 414.259 220.772L413.939 221.001Z" fill="#190404"/>
<path d="M411.518 159.015C411.4 159.061 411.27 159.061 411.152 159.015L370.019 128.456C369.968 128.405 369.927 128.345 369.899 128.278C369.872 128.211 369.857 128.14 369.857 128.067C369.857 127.995 369.872 127.924 369.899 127.857C369.927 127.79 369.968 127.73 370.019 127.679C370.129 127.572 370.277 127.513 370.43 127.513C370.583 127.513 370.731 127.572 370.841 127.679L411.975 158.237C412.081 158.348 412.14 158.495 412.14 158.649C412.14 158.802 412.081 158.95 411.975 159.061C411.821 159.095 411.661 159.079 411.518 159.015Z" fill="#190404"/>
<path d="M60.5117 37.3748H108.729V53.0658C108.729 58.9745 106.384 64.6411 102.21 68.8191C98.0359 72.9972 92.3745 75.3444 86.4714 75.3444H82.8151C79.8922 75.3444 76.9979 74.7681 74.2975 73.6485C71.597 72.5289 69.1434 70.8879 67.0766 68.8191C62.9024 64.6411 60.5574 58.9745 60.5574 53.0658V37.3748H60.5117Z" fill="#1E88E5"/>
<path d="M70.385 50.3669C68.3152 47.0689 65.0316 44.719 61.2443 43.8252C59.3748 42.96 57.2769 42.7197 55.2605 43.1398C53.2441 43.56 51.4162 44.6182 50.0469 46.1582C48.638 47.7547 47.8299 49.7932 47.7617 51.9223C47.7617 53.9019 48.4032 55.8282 49.5898 57.4119C50.9055 59.0258 52.5369 60.3535 54.3839 61.3132C56.2309 62.273 58.2545 62.8446 60.3302 62.993C62.5994 63.2939 64.9078 62.9866 67.0195 62.1025C69.1313 61.2184 70.9708 59.7892 72.3503 57.9608C73.4472 56.4054 70.8878 54.9416 69.7909 56.4512C68.7224 57.5823 67.4409 58.4908 66.0201 59.1241C64.5994 59.7574 63.0675 60.1032 61.5127 60.1414C59.9579 60.1797 58.4109 59.9097 56.9608 59.3471C55.5107 58.7844 54.1861 57.9401 53.0633 56.8629C52.1883 56.1336 51.5286 55.1794 51.1551 54.1029C50.7816 53.0263 50.7084 51.8681 50.9434 50.753C51.1784 49.6379 51.7128 48.608 52.489 47.7742C53.2652 46.9405 54.2538 46.3343 55.3485 46.021C56.89 45.8061 58.4608 45.9791 59.9189 46.5242C63.0755 47.2144 65.8338 49.1208 67.5971 51.8308C68.5112 53.5234 71.0706 51.8308 70.1565 50.3669H70.385Z" fill="#1E88E5"/>
<path d="M569.315 25.8957L549.16 19.442C544.977 18.1025 540.501 20.4109 539.163 24.598L524.624 70.0863C523.286 74.2734 525.592 78.7536 529.775 80.0931L549.93 86.5468C554.113 87.8863 558.589 85.5778 559.927 81.3907L574.466 35.9024C575.804 31.7154 573.498 27.2351 569.315 25.8957Z" fill="#190404"/>
<path d="M567.594 26.9292L550.051 21.3118C545.868 19.9723 541.392 22.2807 540.053 26.4678L526.434 69.0805C525.096 73.2676 527.402 77.7477 531.585 79.0872L549.128 84.7046C553.311 86.0441 557.787 83.7356 559.125 79.5486L572.745 36.9359C574.083 32.7488 571.777 28.2687 567.594 26.9292Z" fill="white"/>
<path d="M616.971 240.771L585.082 188.705L515.608 231.335L547.497 283.401L616.971 240.771Z" fill="white"/>
<path d="M616.971 240.771L585.082 188.705L515.608 231.335L547.497 283.401L616.971 240.771Z" fill="#190404"/>
<path d="M570.473 206.179C571.337 206.519 572.177 206.917 572.987 207.369L572.622 206.774C572.622 206.774 572.622 206.774 572.347 206.774L571.57 207.14C570.973 207.373 570.362 207.571 569.742 207.735C569.56 207.735 569.386 207.807 569.257 207.936C569.129 208.064 569.057 208.239 569.057 208.421C569.057 208.603 569.129 208.778 569.257 208.906C569.386 209.035 569.56 209.107 569.742 209.107H571.342H571.799H572.347H572.576L573.216 209.382C573.673 209.702 574.084 209.793 574.358 209.382C574.484 209.253 574.554 209.081 574.554 208.901C574.554 208.722 574.484 208.549 574.358 208.421C572.961 207.434 571.264 206.965 569.559 207.094V208.421C570.311 208.223 571.045 207.963 571.753 207.643C572.104 207.529 572.442 207.376 572.759 207.186C572.954 207.073 573.119 206.914 573.239 206.723C573.359 206.531 573.429 206.313 573.444 206.088C573.454 205.975 573.429 205.861 573.372 205.762C573.314 205.664 573.228 205.586 573.124 205.539C572.212 205.017 571.266 204.558 570.291 204.167C570.201 204.139 570.106 204.13 570.012 204.141C569.919 204.152 569.829 204.182 569.747 204.229C569.666 204.276 569.595 204.34 569.539 204.416C569.483 204.491 569.443 204.578 569.422 204.67C569.381 204.846 569.41 205.031 569.505 205.185C569.599 205.339 569.75 205.45 569.925 205.493L570.473 206.179Z" fill="#26C6DA"/>
<path d="M576.416 210.571L572.531 211.12L572.897 212.447C573.735 212.219 574.618 212.219 575.456 212.447L575.136 211.303C574.77 211.731 574.356 212.114 573.902 212.447C573.773 212.521 573.671 212.636 573.613 212.773C573.555 212.911 573.543 213.063 573.579 213.208C573.615 213.353 573.697 213.482 573.813 213.576C573.93 213.67 574.073 213.723 574.222 213.728C575.217 213.811 576.199 214.011 577.147 214.322L576.736 213.316C576.564 213.58 576.365 213.825 576.142 214.048C576.057 214.112 575.988 214.195 575.94 214.29C575.892 214.385 575.868 214.49 575.868 214.597C575.868 214.703 575.892 214.808 575.94 214.904C575.988 214.999 576.057 215.082 576.142 215.146C576.584 215.378 577.012 215.638 577.422 215.924L577.97 216.381L578.244 216.656V216.335C578.244 216.335 577.65 216.747 577.467 216.838C577.338 216.888 577.227 216.976 577.148 217.09C577.07 217.205 577.028 217.34 577.028 217.479C577.028 217.618 577.07 217.753 577.148 217.867C577.227 217.982 577.338 218.07 577.467 218.119L579.798 218.668C579.974 218.717 580.162 218.694 580.32 218.603C580.479 218.513 580.595 218.364 580.644 218.188C580.692 218.012 580.669 217.824 580.579 217.665C580.489 217.507 580.339 217.39 580.164 217.342L577.833 216.793V218.028C578.307 217.819 578.729 217.506 579.067 217.113C579.204 216.868 579.243 216.58 579.175 216.308C579.107 216.036 578.938 215.8 578.701 215.649C577.972 214.935 577.14 214.334 576.233 213.865V214.917C576.566 214.634 576.845 214.293 577.056 213.911C577.1 213.818 577.125 213.718 577.128 213.615C577.131 213.513 577.113 213.411 577.074 213.316C577.035 213.221 576.977 213.135 576.903 213.064C576.829 212.994 576.741 212.939 576.645 212.904C575.573 212.577 574.47 212.362 573.354 212.264L573.72 213.545C574.275 213.149 574.781 212.688 575.228 212.172C575.312 212.089 575.374 211.986 575.406 211.872C575.439 211.758 575.441 211.638 575.414 211.523C575.386 211.408 575.329 211.302 575.249 211.215C575.168 211.129 575.066 211.064 574.954 211.029C573.877 210.733 572.74 210.733 571.663 211.029C571.484 211.082 571.332 211.202 571.239 211.363C571.146 211.525 571.117 211.716 571.16 211.898C571.23 212.062 571.355 212.198 571.513 212.281C571.671 212.365 571.853 212.391 572.028 212.355L575.913 211.806C576.089 211.763 576.24 211.652 576.334 211.498C576.428 211.344 576.457 211.159 576.416 210.983C576.363 210.804 576.243 210.652 576.082 210.559C575.92 210.465 575.729 210.437 575.548 210.48L576.416 210.571Z" fill="#26C6DA"/>
<path d="M582.22 219.354C580.857 219.728 579.466 219.988 578.061 220.132C577.879 220.132 577.704 220.204 577.576 220.333C577.447 220.462 577.375 220.636 577.375 220.818C577.375 221 577.447 221.175 577.576 221.304C577.704 221.432 577.879 221.505 578.061 221.505C579.643 221.995 581.174 222.638 582.631 223.426V222.328C582.375 222.593 582.063 222.797 581.717 222.923C581.601 222.953 581.494 223.013 581.408 223.097C581.322 223.181 581.26 223.286 581.228 223.402C581.195 223.518 581.194 223.64 581.224 223.757C581.253 223.874 581.313 223.98 581.397 224.066C581.593 224.279 581.835 224.443 582.104 224.546C582.374 224.649 582.664 224.688 582.951 224.661C582.838 224.697 582.736 224.761 582.656 224.848C582.575 224.934 582.518 225.04 582.491 225.155C582.463 225.27 582.466 225.391 582.498 225.504C582.531 225.618 582.592 225.722 582.677 225.805C584.048 226.948 585.419 228.184 586.744 229.464C587.338 230.059 587.978 230.608 588.572 231.249L588.984 231.752C588.984 231.477 588.984 231.386 588.664 231.477C588.227 231.373 587.821 231.169 587.476 230.883V231.98C587.543 231.916 587.633 231.88 587.727 231.88C587.82 231.88 587.91 231.916 587.978 231.98C588.207 232.255 587.978 232.804 587.978 232.987C587.625 233.395 587.189 233.722 586.699 233.948C586.583 234.004 586.485 234.091 586.417 234.201C586.348 234.31 586.312 234.436 586.312 234.565C586.312 234.694 586.348 234.82 586.417 234.93C586.485 235.039 586.583 235.127 586.699 235.183C587.887 235.64 588.755 236.098 589.121 237.333C589.229 237.718 589.416 238.076 589.669 238.385C590.067 238.72 590.42 239.104 590.72 239.529C591.132 240.352 592.274 239.529 591.909 238.842C591.606 238.379 591.237 237.962 590.812 237.607C590.355 237.104 590.401 236.418 590.035 235.823C589.289 234.858 588.244 234.166 587.064 233.856V235.137C588.298 234.451 589.761 233.261 589.167 231.615C589.072 231.345 588.911 231.103 588.698 230.913C588.485 230.722 588.227 230.589 587.949 230.525C587.671 230.461 587.381 230.469 587.106 230.547C586.831 230.626 586.581 230.773 586.379 230.974C586.302 231.038 586.24 231.119 586.198 231.21C586.155 231.301 586.133 231.4 586.133 231.5C586.133 231.6 586.155 231.7 586.198 231.79C586.24 231.881 586.302 231.962 586.379 232.026C586.773 232.373 587.244 232.62 587.753 232.747C588.261 232.875 588.793 232.878 589.304 232.758C590.172 232.346 590.035 231.386 589.578 230.745C588.696 229.68 587.717 228.7 586.653 227.818L583.225 224.798L582.905 225.942C583.063 225.91 583.213 225.846 583.346 225.754C583.479 225.662 583.591 225.544 583.677 225.407C583.762 225.27 583.819 225.117 583.843 224.957C583.868 224.797 583.86 224.634 583.819 224.478C583.545 223.472 582.585 223.609 581.991 223.06L581.671 224.204C582.239 223.999 582.754 223.671 583.179 223.243C583.264 223.184 583.334 223.105 583.381 223.014C583.429 222.922 583.454 222.82 583.454 222.717C583.454 222.613 583.429 222.512 583.381 222.42C583.334 222.328 583.264 222.25 583.179 222.191C581.718 221.375 580.189 220.686 578.609 220.132V221.459C580.151 221.302 581.679 221.026 583.179 220.635C583.355 220.587 583.504 220.47 583.594 220.312C583.684 220.153 583.708 219.965 583.659 219.789C583.611 219.613 583.494 219.464 583.336 219.374C583.177 219.283 582.99 219.26 582.814 219.309L582.22 219.354Z" fill="#26C6DA"/>
<path d="M564.762 209.473C564.762 209.473 565.996 209.473 565.996 209.748V209.244C565.996 209.565 565.402 209.656 565.265 210.022C565.167 210.171 565.114 210.346 565.114 210.525C565.114 210.704 565.167 210.879 565.265 211.028C565.655 211.367 566.105 211.631 566.59 211.806C567.205 212.059 567.752 212.45 568.19 212.95L568.51 211.806C567.642 211.806 564.534 212.401 565.996 214.002C566.702 214.654 567.504 215.194 568.373 215.603L571.298 217.524V216.427C571.021 216.613 570.807 216.878 570.685 217.189C570.562 217.499 570.537 217.84 570.612 218.165C570.612 219.171 571.755 219.583 572.029 220.498L572.486 219.675L571.481 220.04C571.069 220.04 570.749 220.818 571.161 221.184L576.371 225.759L576.645 224.615C575.823 224.615 574.954 225.21 574.908 226.171C574.905 226.603 575.05 227.023 575.32 227.36C575.685 227.817 576.325 228.092 576.417 228.687C576.508 229.281 577.879 229.19 577.742 228.321C577.669 227.876 577.443 227.471 577.102 227.177C577.102 227.177 576.6 226.811 576.508 226.628C576.417 226.445 576.508 226.033 577.011 225.942C577.127 225.912 577.234 225.852 577.32 225.768C577.405 225.683 577.468 225.578 577.5 225.462C577.533 225.346 577.534 225.224 577.504 225.108C577.474 224.991 577.415 224.884 577.331 224.798L572.166 220.224L571.846 221.367L572.852 221.001C573.025 220.939 573.17 220.818 573.262 220.659C573.354 220.5 573.387 220.313 573.355 220.132C573.215 219.714 572.998 219.326 572.715 218.988C572.715 218.988 571.572 217.89 571.983 217.616C572.088 217.556 572.175 217.469 572.235 217.365C572.295 217.26 572.327 217.142 572.327 217.021C572.327 216.901 572.295 216.782 572.235 216.678C572.175 216.573 572.088 216.487 571.983 216.427L569.515 214.825L568.281 214.002C567.763 213.779 567.297 213.452 566.91 213.041V213.59C566.91 213.59 566.91 213.59 566.636 213.59C567.315 213.284 568.042 213.099 568.784 213.041C568.929 213.06 569.076 213.032 569.204 212.962C569.332 212.891 569.434 212.781 569.495 212.648C569.556 212.516 569.574 212.367 569.544 212.223C569.515 212.08 569.441 211.95 569.333 211.852C568.825 211.253 568.183 210.783 567.459 210.479L566.956 210.205C566.727 210.205 566.362 209.748 566.499 210.205C566.636 210.662 566.499 210.434 566.499 210.205L566.773 209.976C567.916 208.558 565.311 207.918 564.442 207.872C563.574 207.826 563.574 209.199 564.442 209.244L564.762 209.473Z" fill="#26C6DA"/>
<path d="M581.031 230.151C580.255 230.104 579.477 230.104 578.7 230.151C578.559 230.19 578.434 230.273 578.344 230.388C578.253 230.503 578.202 230.645 578.198 230.791C578.192 230.945 578.239 231.097 578.33 231.222C578.421 231.346 578.552 231.436 578.7 231.477C580.129 232.069 581.443 232.905 582.585 233.948L582.86 232.804L580.483 233.536C580.387 233.571 580.298 233.625 580.225 233.696C580.151 233.767 580.092 233.853 580.054 233.948C580.015 234.042 579.996 234.144 579.999 234.247C580.003 234.349 580.027 234.45 580.072 234.542C581.077 236.327 583.042 237.104 584.185 238.705C584.28 238.864 584.433 238.981 584.611 239.032C584.789 239.083 584.98 239.064 585.145 238.98C585.26 238.847 585.324 238.676 585.324 238.499C585.324 238.323 585.26 238.152 585.145 238.019C584.522 237.228 583.8 236.521 582.997 235.915C582.218 235.34 581.551 234.627 581.031 233.81L580.62 234.817L582.997 234.131C583.113 234.101 583.219 234.041 583.305 233.956C583.391 233.872 583.453 233.767 583.486 233.651C583.518 233.535 583.52 233.413 583.49 233.296C583.46 233.18 583.4 233.073 583.317 232.987C581.978 231.771 580.429 230.81 578.746 230.151V231.477C579.4 231.43 580.057 231.43 580.711 231.477C580.893 231.477 581.068 231.405 581.196 231.276C581.325 231.148 581.397 230.973 581.397 230.791C581.397 230.609 581.325 230.435 581.196 230.306C581.068 230.177 580.893 230.105 580.711 230.105L581.031 230.151Z" fill="#26C6DA"/>
<path d="M560.42 213.728C559.325 213.636 558.225 213.636 557.13 213.728C556.49 213.728 556.124 214.688 556.764 215.009C558.672 215.924 560.467 217.06 562.111 218.394V217.296C561.629 217.66 561.088 217.938 560.512 218.119C560.397 218.183 560.302 218.276 560.236 218.388C560.169 218.501 560.134 218.629 560.134 218.76C560.134 218.891 560.169 219.019 560.236 219.132C560.302 219.244 560.397 219.337 560.512 219.4C561.015 219.742 561.488 220.124 561.929 220.544V219.675C561.929 219.675 561.517 219.675 561.38 219.995C561.163 220.158 560.977 220.36 560.832 220.59C560.512 221.23 560.832 221.779 561.426 222.145L564.854 224.432C565.585 224.89 566.27 223.746 565.539 223.243L563.711 222.054L562.797 221.413C562.797 221.413 562.111 221.001 562.066 220.864V221.23C562.066 221.23 562.431 221.001 562.568 220.91C562.792 220.792 562.98 220.619 563.117 220.407C563.203 220.278 563.249 220.127 563.249 219.972C563.249 219.817 563.203 219.666 563.117 219.538C562.614 219.08 562.02 218.623 561.472 218.211C561.449 218.622 561.449 219.035 561.472 219.446C562.154 219.219 562.8 218.896 563.391 218.485C563.476 218.421 563.545 218.339 563.593 218.243C563.641 218.148 563.665 218.043 563.665 217.936C563.665 217.83 563.641 217.725 563.593 217.63C563.545 217.534 563.476 217.451 563.391 217.387C561.671 215.993 559.801 214.796 557.815 213.819L557.45 215.1C558.545 215.009 559.645 215.009 560.74 215.1C561.609 215.1 561.609 213.819 560.74 213.728H560.42Z" fill="#26C6DA"/>
<path d="M566.59 226.902L565.539 226.537L565.173 227.863C566.25 228.063 567.257 228.535 568.098 229.236V228.183L566.499 229.098C566.394 229.159 566.308 229.245 566.247 229.35C566.187 229.454 566.155 229.572 566.155 229.693C566.155 229.814 566.187 229.932 566.247 230.037C566.308 230.141 566.394 230.228 566.499 230.288L568.281 231.523L569.15 232.118L569.607 232.438C569.607 232.667 569.972 232.667 570.109 232.438C570.025 232.497 569.955 232.575 569.907 232.667C569.859 232.759 569.834 232.861 569.834 232.964C569.834 233.067 569.859 233.169 569.907 233.261C569.955 233.352 570.025 233.431 570.109 233.49L571.8 234.862V234.039C571.8 234.039 571.298 234.405 571.161 234.588C571.072 234.732 571.024 234.899 571.024 235.068C571.024 235.238 571.072 235.404 571.161 235.549C571.161 236.006 571.846 236.326 572.166 236.601L573.766 237.973V236.875C573.045 237.331 572.297 237.744 571.526 238.11C570.932 238.385 571.206 239.163 571.526 239.346C573.638 239.89 575.486 241.171 576.736 242.96C576.827 243.117 576.977 243.232 577.153 243.28C577.329 243.327 577.516 243.302 577.673 243.211C577.831 243.12 577.946 242.97 577.993 242.794C578.04 242.618 578.016 242.431 577.925 242.273C576.506 240.16 574.358 238.645 571.892 238.019V239.3C572.662 238.933 573.41 238.521 574.131 238.065C574.216 238.006 574.285 237.927 574.333 237.835C574.381 237.744 574.406 237.642 574.406 237.539C574.406 237.435 574.381 237.333 574.333 237.242C574.285 237.15 574.216 237.071 574.131 237.012L573.126 236.143C573.126 236.143 572.257 235.228 571.983 235.183C571.709 235.137 571.983 235.183 571.983 235.183C571.983 235.183 571.983 235.457 571.983 235.183C571.983 234.908 572.212 235.183 572.303 235.183C572.503 235.045 572.661 234.855 572.76 234.634C572.849 234.515 572.897 234.37 572.897 234.222C572.897 234.073 572.849 233.929 572.76 233.81L571.069 232.438V233.536C571.938 232.941 571.618 232.026 571.069 231.477C570.521 230.928 568.784 229.876 567.641 229.098V230.15L569.241 229.236C569.326 229.172 569.395 229.089 569.443 228.993C569.49 228.898 569.515 228.793 569.515 228.687C569.515 228.58 569.49 228.475 569.443 228.38C569.395 228.284 569.326 228.202 569.241 228.138C568.237 227.265 567.025 226.666 565.722 226.399C565.635 226.375 565.544 226.369 565.454 226.38C565.365 226.391 565.278 226.42 565.2 226.464C565.121 226.509 565.052 226.568 564.997 226.64C564.941 226.711 564.9 226.793 564.876 226.88C564.852 226.967 564.846 227.058 564.857 227.147C564.868 227.237 564.897 227.324 564.941 227.402C564.986 227.481 565.045 227.55 565.117 227.605C565.188 227.661 565.269 227.702 565.356 227.726L566.407 228.046C567.23 228.321 567.596 226.994 566.773 226.765L566.59 226.902Z" fill="#26C6DA"/>
<path d="M547.761 218.439C548.879 218.616 549.981 218.892 551.051 219.263C551.311 219.414 551.587 219.537 551.874 219.629L551.6 219.903C551.28 220.269 550.731 220.635 550.64 221.138C550.548 221.642 551.645 222.602 552.331 223.06C553.016 223.517 552.697 223.334 552.697 223.472C552.697 223.609 552.331 223.792 552.285 223.837C551.972 224.038 551.744 224.348 551.645 224.707C551.624 224.853 551.642 225.003 551.699 225.14C551.755 225.276 551.847 225.395 551.965 225.484L553.885 226.811C554.159 226.811 554.479 227.086 554.57 227.36C554.523 227.617 554.523 227.881 554.57 228.138C554.771 228.528 555.071 228.86 555.439 229.098C555.759 229.327 556.216 229.556 556.353 229.968C556.49 230.379 557.998 230.425 557.678 229.602C557.491 229.077 557.138 228.627 556.673 228.321C556.399 228.092 555.85 227.817 555.759 227.452C555.667 227.086 555.759 226.811 555.759 226.491C555.524 226.2 555.227 225.966 554.89 225.805L552.697 224.295L553.016 225.073C553.016 224.798 553.656 224.569 553.839 224.295C553.971 224.065 554.041 223.805 554.041 223.54C554.041 223.275 553.971 223.015 553.839 222.785C553.524 222.278 553.062 221.879 552.514 221.642H552.194C552.194 221.642 551.737 221.321 551.92 221.642C552.102 221.962 551.92 221.642 551.92 221.642L552.468 221.138C552.834 220.772 553.245 220.315 553.062 219.766C552.879 219.217 552.285 218.943 551.782 218.714C550.499 218.21 549.166 217.842 547.806 217.616C546.984 217.616 546.572 218.851 547.441 218.943L547.761 218.439Z" fill="#26C6DA"/>
<path d="M559.872 232.712L558.638 232.392V233.719C559.049 233.719 561.289 234.039 560.42 234.954C560.295 235.082 560.224 235.255 560.224 235.434C560.224 235.614 560.295 235.786 560.42 235.915C560.877 236.418 561.746 236.967 562.066 237.562C562.386 238.156 561.7 238.659 561.517 239.208C561.456 239.304 561.424 239.415 561.424 239.529C561.424 239.642 561.456 239.753 561.517 239.849L564.259 242.045L565.539 243.051C565.539 243.051 566.636 244.103 566.819 244.058C566.088 244.058 566.225 245.201 566.819 245.384C567.413 245.567 567.687 245.384 567.779 245.796C567.87 246.208 568.007 245.796 567.779 245.796C567.737 245.772 567.69 245.759 567.642 245.759C567.593 245.759 567.546 245.772 567.504 245.796C567.204 246.01 566.98 246.315 566.865 246.665C566.845 246.768 566.847 246.875 566.872 246.977C566.897 247.079 566.944 247.174 567.009 247.257C567.074 247.339 567.156 247.407 567.249 247.454C567.343 247.502 567.445 247.53 567.55 247.534C567.55 247.534 569.927 247.534 570.018 248.129C570.11 248.724 568.464 248.769 568.327 248.815C567.633 248.952 566.919 248.952 566.225 248.815H565.768C565.87 248.88 565.989 248.915 566.11 248.915C566.232 248.915 566.351 248.88 566.453 248.815H567.047C568.522 249.058 569.935 249.586 571.206 250.371C571.481 250.371 572.715 251.514 572.897 251.24C573.08 250.965 572.44 251.24 572.349 251.24C572.118 251.321 571.913 251.464 571.755 251.652C571.671 251.734 571.609 251.838 571.576 251.952C571.544 252.066 571.541 252.186 571.569 252.301C571.596 252.416 571.653 252.522 571.734 252.609C571.815 252.695 571.916 252.76 572.029 252.795C573.069 253.04 574 253.618 574.68 254.442C575.228 255.128 576.188 254.168 575.64 253.481C574.811 252.469 573.669 251.761 572.395 251.469L572.715 252.612C573.126 252.246 573.72 252.612 574.086 251.88C574.183 251.722 574.234 251.54 574.234 251.354C574.234 251.168 574.183 250.986 574.086 250.828C573.857 250.279 573.126 249.913 572.669 249.639C572.071 249.229 571.445 248.862 570.795 248.541C569.53 247.828 568.128 247.391 566.682 247.26C565.722 247.26 564.168 247.489 564.077 248.678C563.985 249.867 565.631 250.142 566.453 250.279C567.714 250.464 569.002 250.273 570.155 249.73C571.024 249.318 572.075 248.495 571.389 247.489C570.704 246.482 568.738 246.299 567.642 246.253L568.281 247.123C568.281 246.848 568.876 246.665 569.058 246.391C569.178 246.246 569.265 246.077 569.313 245.895C569.36 245.713 569.367 245.523 569.333 245.339C569.104 244.469 567.961 244.149 567.23 243.875V245.201C568.647 244.972 568.281 243.371 567.504 242.639C565.905 241.221 564.168 239.986 562.523 238.705V239.391C562.523 239.071 563.025 238.888 563.208 238.614C563.344 238.213 563.344 237.779 563.208 237.379C562.888 236.326 561.7 235.503 560.969 234.771V235.732C561.268 235.39 561.432 234.951 561.432 234.497C561.432 234.042 561.268 233.603 560.969 233.261C560.599 232.89 560.156 232.601 559.668 232.412C559.18 232.223 558.658 232.138 558.135 232.164C557.358 232.164 557.221 233.353 558.135 233.536L559.369 233.81C560.192 233.81 560.557 232.712 559.735 232.529L559.872 232.712Z" fill="#26C6DA"/>
<path d="M543.234 255.357H542.457C542.275 255.357 542.101 255.429 541.972 255.558C541.844 255.687 541.771 255.861 541.771 256.043C541.771 256.225 541.844 256.4 541.972 256.528C542.101 256.657 542.275 256.729 542.457 256.729C545.865 256.873 549.249 257.364 552.558 258.193L552.055 257.37C552.055 257.644 551.552 257.69 551.324 257.781L549.907 258.056L546.845 258.651C546.022 258.651 546.296 259.932 546.845 260.023C548.524 260.149 550.167 260.583 551.689 261.304L551.461 260.343C550.866 261.716 549.175 262.127 547.896 262.448C546.207 262.79 544.466 262.79 542.777 262.448L543.143 263.454C543.645 262.585 545.062 262.676 545.931 262.676C547.347 262.683 548.757 262.852 550.135 263.18C550.311 263.228 550.499 263.205 550.657 263.115C550.816 263.025 550.932 262.875 550.981 262.699C551.029 262.523 551.006 262.335 550.916 262.177C550.826 262.018 550.677 261.901 550.501 261.853C548.809 261.457 547.073 261.288 545.336 261.35C544.704 261.261 544.06 261.346 543.472 261.596C542.884 261.846 542.375 262.251 542 262.768C541.947 262.859 541.916 262.96 541.909 263.065C541.902 263.17 541.919 263.275 541.958 263.372C541.998 263.47 542.06 263.556 542.138 263.626C542.217 263.696 542.31 263.747 542.411 263.774C544.399 264.208 546.457 264.208 548.444 263.774C549.302 263.666 550.124 263.368 550.851 262.901C551.579 262.434 552.193 261.81 552.649 261.075C552.649 260.755 552.649 260.298 552.375 260.16C550.638 259.333 548.763 258.837 546.845 258.696V260.023L550.684 259.245C551.643 259.245 552.695 258.834 553.015 257.781C553.043 257.694 553.053 257.603 553.045 257.511C553.038 257.42 553.012 257.332 552.969 257.251C552.926 257.17 552.868 257.098 552.797 257.04C552.727 256.982 552.645 256.938 552.558 256.912C549.131 256.046 545.623 255.54 542.091 255.403V256.775H542.868C543.737 256.775 543.737 255.357 542.868 255.403L543.234 255.357Z" fill="#26C6DA"/>
<path d="M592.64 214.322C592.476 214.245 592.296 214.205 592.115 214.205C591.933 214.205 591.753 214.245 591.589 214.322C591.512 214.387 591.45 214.467 591.408 214.558C591.366 214.649 591.344 214.748 591.344 214.848C591.344 214.949 591.366 215.048 591.408 215.139C591.45 215.23 591.512 215.31 591.589 215.375L593.463 217.204V216.106C592.881 216.53 592.27 216.913 591.635 217.25C591.557 217.319 591.495 217.403 591.452 217.498C591.409 217.593 591.387 217.695 591.387 217.799C591.387 217.903 591.409 218.006 591.452 218.1C591.495 218.195 591.557 218.279 591.635 218.348C592.867 219.538 594.232 220.582 595.702 221.459C596.434 221.916 597.119 220.727 596.388 220.269C595.023 219.452 593.764 218.469 592.64 217.342V218.44C593.261 218.102 593.857 217.719 594.423 217.296C594.501 217.227 594.563 217.143 594.606 217.048C594.648 216.953 594.67 216.851 594.67 216.747C594.67 216.643 594.648 216.54 594.606 216.446C594.563 216.351 594.501 216.267 594.423 216.198L592.549 214.414V215.466C592.639 215.494 592.734 215.502 592.827 215.491C592.921 215.481 593.011 215.451 593.093 215.404C593.174 215.356 593.245 215.293 593.301 215.217C593.357 215.141 593.396 215.055 593.417 214.963C593.459 214.787 593.429 214.602 593.335 214.448C593.241 214.294 593.09 214.183 592.915 214.139L592.64 214.322Z" fill="#26C6DA"/>
<path d="M587.206 213.64L547.422 188.709L514.147 241.907L553.93 266.839L587.206 213.64Z" fill="white"/>
<path d="M543.325 205.905C544.071 205.859 544.819 205.859 545.565 205.905L544.925 205.402L544.331 206.042C544.019 206.4 543.683 206.736 543.325 207.049C543.265 207.108 543.216 207.179 543.183 207.258C543.15 207.336 543.133 207.421 543.133 207.506C543.133 207.591 543.15 207.676 543.183 207.754C543.216 207.833 543.265 207.904 543.325 207.963C543.448 208.064 543.601 208.119 543.76 208.119C543.918 208.119 544.071 208.064 544.194 207.963C544.661 207.718 545.151 207.519 545.656 207.369H546.022H547.027C547.209 207.412 547.4 207.383 547.561 207.29C547.723 207.196 547.842 207.044 547.896 206.866C547.937 206.69 547.908 206.505 547.813 206.35C547.719 206.196 547.568 206.085 547.393 206.042C546.047 205.817 544.664 206.093 543.508 206.82L544.331 207.872L545.519 206.683C545.976 206.179 546.525 205.585 546.296 204.898C546.238 204.76 546.144 204.64 546.023 204.551C545.903 204.463 545.76 204.409 545.611 204.395C544.865 204.349 544.117 204.349 543.371 204.395C543.005 204.395 542.64 204.67 542.686 205.081C542.679 205.173 542.692 205.266 542.724 205.352C542.756 205.438 542.806 205.517 542.871 205.582C542.936 205.647 543.015 205.697 543.101 205.729C543.187 205.761 543.279 205.774 543.371 205.768L543.325 205.905Z" fill="#26C6DA"/>
<path d="M549.04 206.5L546.526 208.238L547.349 209.336C547.87 208.942 548.484 208.69 549.131 208.604L548.308 207.78C548.188 208.181 548.019 208.565 547.806 208.924C547.806 209.427 547.806 210.159 548.583 209.931C549.355 209.662 550.151 209.463 550.959 209.336L550.091 208.65C550.117 208.878 550.117 209.108 550.091 209.336C550.091 209.748 550.365 210.205 550.776 210.205H551.873H552.422H552.696C552.924 210.205 552.924 210.205 552.696 210.205V209.839L552.239 210.571C552.177 210.692 552.151 210.828 552.162 210.963C552.174 211.098 552.222 211.228 552.303 211.337C552.384 211.446 552.493 211.531 552.619 211.581C552.745 211.632 552.882 211.646 553.016 211.623L554.798 211.166C555.667 211.166 555.301 209.656 554.433 209.839L552.65 210.297L553.427 211.303C553.673 210.956 553.859 210.569 553.976 210.159C553.993 209.932 553.929 209.706 553.795 209.522C553.661 209.337 553.466 209.207 553.244 209.153C552.435 208.879 551.585 208.74 550.731 208.741L551.37 209.61C551.494 209.272 551.571 208.918 551.599 208.558C551.588 208.457 551.557 208.36 551.506 208.271C551.456 208.183 551.387 208.107 551.306 208.047C551.224 207.986 551.131 207.944 551.032 207.922C550.933 207.899 550.83 207.898 550.731 207.918C549.916 208.039 549.119 208.254 548.354 208.558L549.131 209.565C549.388 209.087 549.587 208.58 549.725 208.055C549.725 207.506 549.405 207.14 548.902 207.186C548.032 207.324 547.213 207.687 546.526 208.238C545.932 208.741 546.526 209.793 547.349 209.336L549.862 207.598C549.923 207.538 549.971 207.467 550.004 207.388C550.037 207.31 550.054 207.225 550.054 207.14C550.054 207.055 550.037 206.971 550.004 206.892C549.971 206.813 549.923 206.742 549.862 206.683C549.775 206.527 549.631 206.411 549.461 206.36C549.29 206.309 549.106 206.326 548.948 206.408L549.04 206.5Z" fill="#26C6DA"/>
<path d="M555.896 210.708C555.073 211.395 554.205 212.035 553.336 212.63C553.212 212.72 553.121 212.849 553.078 212.997C553.036 213.145 553.044 213.303 553.102 213.445C553.16 213.588 553.265 213.706 553.398 213.783C553.532 213.859 553.687 213.888 553.839 213.865C555.056 213.775 556.278 213.775 557.495 213.865L556.856 212.996C556.781 213.256 556.639 213.493 556.444 213.682C556.372 213.773 556.322 213.879 556.299 213.993C556.276 214.106 556.28 214.224 556.312 214.336C556.343 214.447 556.4 214.55 556.479 214.635C556.558 214.72 556.655 214.786 556.764 214.825H557.678C557.952 214.825 558.09 214.826 558.044 214.277C557.928 214.333 557.83 214.421 557.762 214.53C557.693 214.639 557.657 214.765 557.657 214.894C557.657 215.023 557.693 215.149 557.762 215.259C557.83 215.368 557.928 215.456 558.044 215.512L561.7 216.518L563.391 217.067C563.652 217.206 563.928 217.313 564.214 217.387C564.214 217.021 564.214 216.93 563.94 217.067H563.254L563.711 217.936C563.985 217.936 564.031 218.302 563.985 218.577C563.848 218.935 563.664 219.274 563.437 219.583C563.366 219.684 563.325 219.803 563.32 219.927C563.315 220.05 563.345 220.173 563.408 220.279C563.471 220.385 563.563 220.471 563.674 220.526C563.784 220.582 563.908 220.603 564.031 220.59C564.808 220.59 565.722 220.59 566.316 221.047C566.519 221.332 566.785 221.567 567.093 221.733C567.413 221.733 567.916 221.733 568.19 222.099C568.464 222.465 569.835 221.687 569.15 221.139C568.792 220.883 568.388 220.697 567.962 220.59C567.459 220.59 567.276 219.995 566.865 219.72C566.011 219.217 565.005 219.038 564.031 219.217L564.625 220.269C565.311 219.309 565.859 217.891 564.625 216.93C564.439 216.766 564.216 216.651 563.975 216.594C563.734 216.537 563.483 216.54 563.243 216.603C563.004 216.667 562.784 216.788 562.602 216.957C562.421 217.125 562.284 217.336 562.203 217.57C562.161 217.746 562.191 217.931 562.285 218.085C562.379 218.24 562.53 218.35 562.706 218.394C563.483 218.394 564.671 218.394 565.219 217.845C565.768 217.296 565.219 216.472 564.671 216.152C563.683 215.713 562.658 215.361 561.609 215.1L558.227 214.185V215.466C558.471 215.299 558.641 215.043 558.7 214.753C558.76 214.463 558.705 214.161 558.547 213.911C558.044 213.179 557.313 213.59 556.627 213.453L556.901 214.597C557.254 214.234 557.519 213.796 557.678 213.316C557.698 213.213 557.695 213.106 557.67 213.004C557.646 212.902 557.599 212.807 557.534 212.724C557.469 212.642 557.387 212.574 557.294 212.527C557.2 212.479 557.098 212.451 556.993 212.447C555.648 212.41 554.303 212.487 552.971 212.675L553.519 213.956C554.512 213.306 555.459 212.588 556.353 211.806C557.038 211.212 556.033 210.251 555.393 210.846L555.896 210.708Z" fill="#26C6DA"/>
<path d="M540.448 210.205C540.832 210.069 541.252 210.069 541.636 210.205L541.225 209.885C541.225 209.656 541.225 209.611 541.225 209.885C541.199 210.036 541.199 210.191 541.225 210.342C541.234 210.487 541.281 210.626 541.361 210.747C541.442 210.867 541.552 210.965 541.682 211.029C542.459 211.486 543.51 211.029 544.378 211.349V210.297C543.784 210.8 541.865 212.127 543.419 212.859C544.133 213.058 544.871 213.165 545.612 213.179L548.446 213.499L547.852 212.493C547.687 212.735 547.598 213.022 547.598 213.316C547.598 213.61 547.687 213.897 547.852 214.139C548.355 214.688 549.132 214.734 549.634 215.237V214.277L549.086 214.871C549.002 214.954 548.94 215.058 548.907 215.172C548.875 215.285 548.872 215.406 548.9 215.521C548.927 215.636 548.984 215.742 549.065 215.829C549.146 215.915 549.247 215.979 549.36 216.015L554.433 217.25L554.159 216.106C553.836 216.282 553.588 216.569 553.462 216.915C553.336 217.26 553.34 217.64 553.473 217.982C553.614 218.284 553.857 218.527 554.159 218.668C554.433 218.668 555.119 218.668 555.302 219.08C555.484 219.492 556.993 219.08 556.49 218.394C556.24 218.05 555.888 217.793 555.484 217.662H554.89C554.57 217.662 554.89 217.662 555.119 217.296C555.203 217.21 555.263 217.103 555.292 216.987C555.322 216.87 555.321 216.748 555.288 216.632C555.256 216.516 555.193 216.411 555.108 216.326C555.022 216.242 554.915 216.182 554.799 216.152L549.726 214.871L550.046 216.015L550.594 215.42C550.662 215.36 550.717 215.286 550.754 215.203C550.791 215.121 550.811 215.031 550.811 214.94C550.811 214.849 550.791 214.759 550.754 214.676C550.717 214.594 550.662 214.52 550.594 214.46C550.594 214.46 548.857 213.407 548.857 213.362C548.857 213.316 548.857 212.401 548.263 212.31L546.024 212.081H544.972C544.972 212.081 543.967 212.081 544.013 212.081V212.63C544.013 212.218 544.973 211.806 545.292 211.532C545.37 211.463 545.433 211.379 545.475 211.284C545.518 211.189 545.54 211.087 545.54 210.983C545.54 210.879 545.518 210.776 545.475 210.682C545.433 210.587 545.37 210.503 545.292 210.434C544.705 210.22 544.089 210.097 543.464 210.068C543.114 210.045 542.763 210.045 542.413 210.068C542.642 210.617 542.824 210.754 542.916 210.434V210.159C543.236 208.696 541.225 208.97 540.448 209.29C539.671 209.611 539.991 210.937 540.813 210.617L540.448 210.205Z" fill="#26C6DA"/>
<path d="M558.773 218.485C558.271 218.714 557.814 219.034 557.311 219.309C556.808 219.583 556.945 220.681 557.676 220.59C558.892 220.505 560.113 220.629 561.287 220.956L560.967 219.812L559.596 221.139C559.519 221.203 559.457 221.283 559.415 221.374C559.373 221.465 559.351 221.564 559.351 221.665C559.351 221.765 559.373 221.864 559.415 221.955C559.457 222.046 559.519 222.126 559.596 222.191C560.876 223.106 562.521 222.968 563.846 223.7C565.172 224.432 565.355 222.923 564.578 222.511C563.863 222.178 563.111 221.933 562.338 221.779C561.608 221.658 560.909 221.394 560.282 221.001V222.099L561.698 220.773C561.771 220.682 561.82 220.575 561.843 220.462C561.866 220.348 561.862 220.231 561.831 220.119C561.8 220.007 561.742 219.904 561.664 219.819C561.585 219.734 561.487 219.669 561.378 219.629C560.086 219.264 558.741 219.125 557.402 219.217L557.768 220.498C558.213 220.18 558.688 219.904 559.185 219.675C559.962 219.263 559.185 218.074 558.499 218.485H558.773Z" fill="#26C6DA"/>
<path d="M539.121 214.185C538.282 214.532 537.472 214.945 536.698 215.42C536.566 215.497 536.462 215.615 536.404 215.757C536.347 215.899 536.338 216.057 536.38 216.204C536.423 216.351 536.513 216.48 536.637 216.57C536.761 216.661 536.911 216.707 537.064 216.701C538.601 216.661 540.136 216.814 541.634 217.159L541.223 216.152C541.02 216.554 540.758 216.924 540.446 217.25C540.362 217.333 540.3 217.436 540.268 217.55C540.235 217.664 540.233 217.784 540.26 217.9C540.288 218.015 540.345 218.121 540.425 218.207C540.506 218.294 540.608 218.358 540.72 218.394L542.229 218.714L541.726 218.074L541.406 218.485C541.34 218.725 541.34 218.978 541.406 219.217C541.455 219.428 541.57 219.617 541.734 219.757C541.899 219.897 542.104 219.981 542.32 219.995L545.656 220.452C546.022 220.452 546.342 220.086 546.342 219.766C546.342 219.584 546.27 219.41 546.141 219.281C546.013 219.152 545.838 219.08 545.656 219.08L543.965 218.851H543.234C543.006 218.851 542.64 218.851 542.503 218.851V219.126V218.851C542.523 218.638 542.523 218.424 542.503 218.211C542.508 218.056 542.462 217.905 542.371 217.78C542.279 217.656 542.149 217.566 542 217.525L540.492 217.204L540.812 218.348C541.211 217.942 541.55 217.479 541.817 216.976C541.87 216.885 541.901 216.783 541.908 216.678C541.916 216.573 541.899 216.468 541.859 216.371C541.819 216.274 541.758 216.187 541.679 216.117C541.601 216.048 541.507 215.997 541.406 215.969C539.726 215.598 538.007 215.429 536.287 215.466L536.607 216.701C537.285 216.306 537.987 215.954 538.709 215.649C538.885 215.606 539.036 215.495 539.13 215.341C539.224 215.186 539.254 215.001 539.212 214.826C539.159 214.647 539.039 214.495 538.878 214.401C538.716 214.308 538.525 214.279 538.344 214.322L539.121 214.185Z" fill="#26C6DA"/>
<path d="M547.759 221.001H546.89L547.256 222.328C548.05 222.122 548.884 222.122 549.678 222.328L549.267 221.321L548.581 222.374C548.307 222.74 548.307 223.426 548.856 223.517L550.684 223.792H551.461H551.963C551.963 223.792 552.192 223.792 551.963 223.792V223.288C551.963 223.792 551.963 224.295 552.329 224.432L553.974 224.798L553.472 224.112C553.472 224.112 553.197 224.569 553.152 224.798C553.141 224.96 553.174 225.121 553.246 225.265C553.319 225.41 553.428 225.533 553.563 225.622C553.916 225.818 554.304 225.942 554.706 225.988L556.168 226.354L555.757 225.347C555.433 225.853 555.082 226.342 554.706 226.811C554.386 227.223 554.706 228.046 555.208 228C556.862 227.608 558.602 227.836 560.099 228.641C560.83 229.144 561.515 227.955 560.784 227.451C559.091 226.497 557.105 226.203 555.208 226.628L555.711 227.772L556.945 226.033C556.998 225.942 557.029 225.841 557.036 225.736C557.043 225.631 557.027 225.526 556.987 225.429C556.947 225.332 556.886 225.245 556.807 225.175C556.728 225.105 556.635 225.055 556.534 225.027L555.528 224.798C555.222 224.665 554.899 224.572 554.569 224.524C554.172 224.524 554.172 224.661 554.569 224.935V224.707C554.615 224.511 554.615 224.307 554.569 224.112C554.564 223.965 554.513 223.824 554.422 223.709C554.332 223.594 554.207 223.51 554.066 223.471L552.42 223.106L552.832 224.112C552.916 223.959 552.961 223.788 552.962 223.613C552.964 223.438 552.922 223.266 552.84 223.112C552.759 222.958 552.64 222.826 552.495 222.729C552.35 222.632 552.183 222.573 552.009 222.557C550.958 222.557 549.861 222.236 548.81 222.099L549.13 223.243C549.46 222.819 549.765 222.376 550.044 221.916C550.088 221.824 550.113 221.723 550.116 221.621C550.119 221.518 550.101 221.416 550.062 221.321C550.023 221.226 549.965 221.141 549.891 221.07C549.817 220.999 549.729 220.944 549.633 220.91C548.599 220.636 547.512 220.636 546.479 220.91C545.611 221.138 545.976 222.374 546.845 222.236H547.713C548.581 222.236 548.216 220.772 547.347 220.91L547.759 221.001Z" fill="#26C6DA"/>
<path d="M532.084 222.099C532.929 221.82 533.803 221.636 534.689 221.55C534.689 221.55 535.146 221.55 535.237 221.55C535.329 221.55 535.466 221.55 535.237 221.23V221.596C535.173 221.959 535.173 222.331 535.237 222.694C535.237 223.563 536.426 223.563 537.111 223.609C537.214 223.57 537.328 223.57 537.431 223.609C537.351 223.797 537.309 223.999 537.309 224.204C537.309 224.408 537.351 224.61 537.431 224.798C537.461 224.913 537.518 225.019 537.598 225.106C537.677 225.194 537.777 225.261 537.888 225.302L539.671 225.53H540.356L540.63 225.988C540.928 226.213 541.271 226.369 541.636 226.445C541.956 226.445 542.413 226.445 542.641 226.72C542.87 226.994 544.241 226.354 543.601 225.759C543.273 225.447 542.859 225.24 542.413 225.164C542.079 225.177 541.752 225.062 541.499 224.844C541.372 224.641 541.197 224.472 540.99 224.353C540.783 224.233 540.549 224.166 540.31 224.158L538.254 223.883L538.757 224.341C538.757 224.341 538.757 224.341 538.757 224.021C538.824 223.797 538.824 223.558 538.757 223.334C538.749 223.137 538.69 222.944 538.586 222.776C538.482 222.607 538.336 222.469 538.162 222.374C537.78 222.135 537.332 222.023 536.883 222.054H536.563C536.563 222.054 536.563 222.054 536.563 222.328C536.563 222.602 536.837 221.55 536.837 221.505C537.568 219.034 533.226 220.315 532.267 220.635C531.307 220.956 531.764 222.237 532.632 221.962L532.084 222.099Z" fill="#26C6DA"/>
<path d="M545.108 227.497H544.148L544.514 228.824C544.514 228.824 546.251 228.138 546.068 228.824C546.04 228.908 546.03 228.997 546.038 229.085C546.046 229.173 546.073 229.259 546.116 229.336C546.159 229.413 546.217 229.481 546.288 229.535C546.358 229.588 546.439 229.627 546.525 229.647C547.083 229.769 547.622 229.97 548.124 230.242C548.444 230.242 548.124 230.242 548.124 230.654C548.08 230.865 548.08 231.083 548.124 231.294C548.121 231.443 548.169 231.588 548.261 231.705C548.353 231.822 548.482 231.903 548.627 231.935C548.993 231.935 553.517 233.078 553.563 232.987L553.883 232.575C553.06 233.124 553.472 234.039 554.249 233.902H555.163C555.163 233.582 554.934 233.536 554.843 233.902C554.751 234.268 554.614 234.588 554.614 234.817C554.612 234.941 554.643 235.063 554.704 235.171C554.765 235.278 554.855 235.367 554.962 235.428C555.07 235.489 555.192 235.52 555.316 235.517C555.44 235.514 555.561 235.478 555.665 235.411H556.397C556.625 235.411 557.128 235.411 557.311 235.411C557.494 235.411 557.311 235.411 557.311 235.411C557.137 235.592 556.983 235.791 556.854 236.006C556.531 236.339 556.137 236.594 555.702 236.753C555.267 236.911 554.801 236.969 554.34 236.921L554.751 237.241C554.751 237.241 557.219 236.555 557.448 236.555H558.865C559.439 236.489 560.02 236.568 560.556 236.784L560.282 236.372C560.282 236.372 559.733 236.875 559.687 236.967C559.619 237.085 559.587 237.221 559.596 237.357C559.604 237.493 559.654 237.624 559.737 237.732C559.821 237.84 559.934 237.921 560.064 237.964C560.194 238.007 560.333 238.01 560.464 237.973C561.186 237.819 561.939 237.899 562.612 238.202C563.389 238.568 564.121 237.379 563.298 237.013C562.3 236.541 561.17 236.428 560.099 236.692L560.876 237.699C560.876 237.241 561.561 237.104 561.653 236.555C561.675 236.377 561.653 236.197 561.589 236.029C561.525 235.862 561.422 235.713 561.287 235.594C560.866 235.37 560.393 235.26 559.916 235.274C559.217 235.206 558.513 235.206 557.814 235.274C556.676 235.222 555.545 235.458 554.523 235.96C553.837 236.326 553.015 237.15 553.517 237.973C554.02 238.797 555.346 238.385 556.031 237.973C556.956 237.625 557.764 237.022 558.362 236.235C558.819 235.594 559.139 234.634 558.362 234.131C557.585 233.627 556.031 234.131 555.208 234.588L556.214 235.183C556.214 234.817 556.534 234.497 556.534 234.131C556.532 233.826 556.418 233.533 556.214 233.307C555.665 232.85 554.751 233.033 554.112 233.307L554.66 234.542C555.574 233.902 555.254 232.804 554.294 232.392C553.517 232.159 552.722 231.991 551.918 231.889L549.221 231.294L549.724 231.98C549.724 231.569 549.953 231.294 549.724 230.883C549.677 230.538 549.496 230.226 549.221 230.013C548.486 229.535 547.662 229.208 546.799 229.053L547.256 229.876C547.361 229.55 547.355 229.198 547.239 228.875C547.123 228.553 546.904 228.277 546.616 228.092C546.223 227.88 545.783 227.769 545.336 227.769C544.89 227.769 544.45 227.88 544.057 228.092C543.28 228.458 543.554 229.647 544.422 229.419H545.382C546.25 229.419 545.885 227.909 545.016 228.092L545.108 227.497Z" fill="#26C6DA"/>
<path d="M541.408 248.815L540.859 249.135C540.082 249.593 540.859 250.691 541.545 250.325C543.939 249.264 546.435 248.452 548.995 247.9L548.126 247.214C548.126 247.489 548.126 247.58 547.806 247.763L546.984 248.404L545.11 249.822C544.978 249.919 544.881 250.056 544.832 250.212C544.783 250.368 544.784 250.535 544.836 250.691C544.905 250.841 545.027 250.961 545.178 251.028C545.33 251.095 545.5 251.105 545.658 251.057C546.904 250.592 548.215 250.33 549.543 250.279L548.857 249.593C548.857 250.691 547.761 251.651 546.938 252.246C545.984 253.017 544.878 253.578 543.693 253.893L544.561 254.534C544.561 253.847 545.795 253.39 546.344 253.115C547.256 252.707 548.205 252.385 549.177 252.155C549.353 252.106 549.502 251.99 549.592 251.831C549.682 251.672 549.706 251.484 549.657 251.308C549.609 251.132 549.492 250.983 549.334 250.893C549.175 250.803 548.987 250.78 548.812 250.828C547.571 251.113 546.372 251.559 545.247 252.155C544.241 252.658 543.236 253.344 543.19 254.534C543.186 254.641 543.208 254.749 543.253 254.846C543.298 254.944 543.366 255.03 543.451 255.097C543.535 255.164 543.634 255.21 543.74 255.231C543.846 255.252 543.955 255.249 544.059 255.22C545.493 254.803 546.829 254.103 547.989 253.161C548.621 252.79 549.154 252.271 549.544 251.65C549.933 251.029 550.168 250.324 550.229 249.593C550.229 249.227 549.909 248.861 549.543 248.907C548.092 248.954 546.657 249.232 545.293 249.73L545.841 251.011L548.172 249.181C548.812 248.678 549.589 248.129 549.497 247.214C549.487 247.113 549.455 247.016 549.404 246.927C549.354 246.839 549.286 246.763 549.204 246.703C549.122 246.642 549.029 246.6 548.93 246.578C548.831 246.555 548.728 246.554 548.629 246.574C545.962 247.171 543.359 248.029 540.859 249.135L541.545 250.325L542.093 250.005C542.825 249.593 542.093 248.403 541.408 248.815Z" fill="#26C6DA"/>
<path d="M561.424 203.572C561.103 203.672 560.828 203.882 560.647 204.167C560.595 204.258 560.564 204.359 560.556 204.464C560.549 204.569 560.566 204.674 560.606 204.771C560.645 204.868 560.707 204.955 560.786 205.025C560.864 205.095 560.958 205.145 561.059 205.173L562.978 205.768L562.567 204.761C562.321 205.259 562.031 205.734 561.699 206.18C561.424 206.545 561.699 207.049 562.11 207.186C563.39 207.581 564.707 207.842 566.04 207.964C566.219 207.953 566.387 207.877 566.513 207.751C566.64 207.624 566.715 207.456 566.726 207.277C566.726 207.095 566.654 206.921 566.525 206.792C566.397 206.664 566.222 206.591 566.04 206.591C564.831 206.467 563.637 206.221 562.476 205.859L562.887 206.866C563.219 206.42 563.509 205.946 563.755 205.448C563.808 205.357 563.839 205.255 563.846 205.15C563.854 205.045 563.837 204.94 563.797 204.843C563.757 204.746 563.696 204.659 563.617 204.589C563.539 204.52 563.445 204.469 563.344 204.441L561.424 203.846L561.836 204.853C561.991 204.8 562.119 204.691 562.196 204.546C562.272 204.401 562.291 204.233 562.247 204.075C562.194 203.906 562.082 203.761 561.93 203.669C561.779 203.576 561.599 203.542 561.424 203.572Z" fill="#26C6DA"/>
<path d="M528.747 266.336C534.84 246.604 536.775 236.281 534.551 235.366C532.327 234.451 527.756 239.986 520.84 251.972L528.747 266.336Z" fill="#F7A9A0"/>
<path d="M114.169 178.64H18.7392C17.3856 178.583 16.0883 178.082 15.0476 177.214C14.0068 176.346 13.2805 175.159 12.9806 173.837L0.0921119 106.635C-0.0178882 106.069 0.000802254 105.485 0.146787 104.928C0.292771 104.37 0.562305 103.852 0.935423 103.413C1.30854 102.973 1.77568 102.623 2.30219 102.389C2.8287 102.155 3.40111 102.043 3.97695 102.06H99.4062C100.729 102.104 102.004 102.572 103.041 103.395C104.078 104.219 104.822 105.355 105.165 106.635L118.053 173.928C118.187 174.504 118.187 175.103 118.052 175.678C117.917 176.254 117.651 176.79 117.275 177.246C116.9 177.702 116.424 178.065 115.885 178.307C115.346 178.548 114.759 178.662 114.169 178.64Z" fill="#190404"/>
<path d="M147.304 175.621H22.7617C21.6259 175.621 20.7051 176.542 20.7051 177.679V177.954C20.7051 179.091 21.6259 180.012 22.7617 180.012H147.304C148.44 180.012 149.361 179.091 149.361 177.954V177.679C149.361 176.542 148.44 175.621 147.304 175.621Z" fill="#190404"/>
<path d="M93.1455 181.568C70.842 168.027 59.218 161.927 58.2735 163.269C57.8622 163.818 59.2333 165.556 62.2498 168.484C54.7544 164.321 50.5039 162.766 49.5898 163.91C48.6758 165.053 52.195 170.634 60.833 179.967L93.1455 181.568Z" fill="#F7A9A0"/>
<path d="M61.5638 180.424C48.6753 172.235 46.573 169.994 46.8929 169.445C47.2128 168.896 50.1835 169.445 64.0775 175.575L61.5638 180.424Z" fill="#F7A9A0"/>
<path d="M103.702 207.872H38.8484C38.0563 207.872 37.2959 208.184 36.7315 208.74C36.1671 209.297 35.844 210.053 35.832 210.846V252.658C35.844 253.451 36.1671 254.207 36.7315 254.763C37.2959 255.32 38.0563 255.632 38.8484 255.631H50.2287L69.8356 272.192C69.3786 266.656 68.8758 261.167 68.373 255.631H103.702C104.49 255.631 105.246 255.318 105.803 254.761C106.36 254.203 106.673 253.447 106.673 252.658V210.846C106.673 210.057 106.36 209.301 105.803 208.743C105.246 208.185 104.49 207.872 103.702 207.872Z" fill="#26C6DA"/>
<path d="M50.7778 234.908C53.1252 234.908 55.0282 233.003 55.0282 230.654C55.0282 228.304 53.1252 226.399 50.7778 226.399C48.4303 226.399 46.5273 228.304 46.5273 230.654C46.5273 233.003 48.4303 234.908 50.7778 234.908Z" fill="white"/>
<path d="M73.7216 230.654C73.7216 231.495 73.4723 232.318 73.0052 233.017C72.5382 233.717 71.8744 234.262 71.0978 234.584C70.3211 234.906 69.4664 234.991 68.6419 234.827C67.8174 234.662 67.0601 234.257 66.4657 233.662C65.8712 233.067 65.4664 232.309 65.3024 231.484C65.1384 230.659 65.2226 229.803 65.5443 229.026C65.866 228.248 66.4108 227.584 67.1098 227.116C67.8088 226.649 68.6305 226.399 69.4712 226.399C70.0294 226.399 70.5821 226.509 71.0978 226.723C71.6134 226.937 72.082 227.25 72.4767 227.646C72.8714 228.041 73.1845 228.51 73.3981 229.026C73.6117 229.542 73.7216 230.095 73.7216 230.654Z" fill="white"/>
<path d="M86.7465 234.908C89.094 234.908 90.997 233.003 90.997 230.654C90.997 228.304 89.094 226.399 86.7465 226.399C84.3991 226.399 82.4961 228.304 82.4961 230.654C82.4961 233.003 84.3991 234.908 86.7465 234.908Z" fill="white"/>
<path d="M306.992 106.635H303.793C295.71 106.029 287.933 103.281 281.261 98.6751C281.21 98.6241 281.169 98.5635 281.142 98.4968C281.114 98.4301 281.1 98.3585 281.1 98.2863C281.1 98.214 281.114 98.1425 281.142 98.0757C281.169 98.009 281.21 97.9484 281.261 97.8974C281.369 97.804 281.507 97.7527 281.649 97.7527C281.792 97.7527 281.93 97.804 282.038 97.8974C289.148 102.847 297.558 105.586 306.216 105.773C314.875 105.961 323.396 103.587 330.712 98.9496C330.831 98.8605 330.975 98.8123 331.124 98.8123C331.272 98.8123 331.416 98.8605 331.535 98.9496C331.632 99.065 331.685 99.2107 331.685 99.3613C331.685 99.5119 331.632 99.6577 331.535 99.773C324.151 104.302 315.652 106.678 306.992 106.635Z" fill="#190404"/>
<path d="M336.243 13.5866C344.241 20.3571 338.62 40.394 336.243 40.4398C333.866 40.4855 335.649 27.0361 328.016 23.3306C323.446 21.089 316.59 22.8731 315.768 25.6179C314.945 28.3627 318.327 29.7809 317.733 30.8788C316.179 33.6693 294.881 20.1283 286.426 26.7615C281.353 30.6957 283.272 39.5706 282.267 39.5706C281.261 39.5706 280.027 20.4943 285.695 12.8546C286.426 11.8482 288.345 9.24066 290.631 9.42364C292.916 9.60663 293.281 11.345 294.515 11.0248C295.749 10.7045 295.795 8.46297 296.526 6.67886C298.857 1.05204 309.735 -2.013 315.768 1.50948C317.504 2.56165 317.322 3.29362 319.424 5.39796C325.594 11.711 331.901 9.92687 336.243 13.5866Z" fill="#190404"/>
<path d="M80.3016 32.2969H80.0274C76.9195 30.467 75.457 28.7286 75.457 26.9903C75.457 25.2519 78.6563 23.1933 81.3071 21.9124C83.1352 21.0433 85.1919 20.0368 85.1462 19.2134C85.1005 18.3899 83.9122 18.2527 82.6325 17.841C80.4537 17.3372 78.535 16.0514 77.2395 14.227C75.9141 11.6652 76.8282 8.05121 80.1188 3.15634C80.2168 3.06672 80.342 3.01256 80.4744 3.00246C80.6067 2.99235 80.7387 3.02689 80.8491 3.1006C80.9596 3.1743 81.0421 3.28291 81.0837 3.4091C81.1253 3.53528 81.1235 3.67176 81.0786 3.79679C78.0621 8.37144 77.148 11.5737 78.2906 13.7238C79.4004 15.249 81.0236 16.3213 82.861 16.7431C84.552 17.3378 86.0146 17.841 86.1517 19.1219C86.2888 20.4028 84.1407 21.7752 81.5813 22.9646C79.0219 24.154 76.4625 25.3892 76.3711 27.0818C76.3711 27.951 76.9652 29.3691 80.3016 31.2904C80.3527 31.3414 80.3933 31.4021 80.421 31.4688C80.4487 31.5355 80.4629 31.6071 80.4629 31.6793C80.4629 31.7516 80.4487 31.8231 80.421 31.8898C80.3933 31.9565 80.3527 32.0171 80.3016 32.0681C80.3192 32.1434 80.3192 32.2216 80.3016 32.2969Z" fill="#190404"/>
<path d="M90.1289 33.4405H89.8547C87.2649 31.9766 86.0309 30.4517 86.1527 28.8658C86.1527 26.8987 88.7578 25.6636 90.9973 24.6114C92.277 23.971 94.1052 23.1018 94.0595 22.5071C94.0138 21.9124 92.9626 21.7751 92.0942 21.4549C90.243 21.0948 88.6041 20.0286 87.5239 18.4814C86.3813 16.3313 87.1582 13.312 89.8547 9.33208C89.9654 9.22584 90.1127 9.1665 90.2661 9.1665C90.4194 9.1665 90.5668 9.22584 90.6774 9.33208C90.7707 9.44012 90.822 9.57813 90.822 9.72092C90.822 9.86371 90.7707 10.0017 90.6774 10.1098C88.2551 13.7237 87.4782 16.377 88.3923 18.1154C89.327 19.3725 90.6954 20.2367 92.2313 20.54C93.6482 21.0432 94.8822 21.4549 94.9736 22.5985C95.065 23.7422 93.2825 24.8401 91.2259 25.8465C89.1692 26.853 87.1582 27.8137 87.0668 29.0946C86.9754 30.3755 87.5239 30.9244 90.1747 32.4798C90.268 32.5878 90.3193 32.7259 90.3193 32.8686C90.3193 33.0114 90.268 33.1495 90.1747 33.2575C90.1711 33.3209 90.1556 33.3829 90.1289 33.4405Z" fill="#190404"/>
</g>
<defs>
<clipPath id="clip0_1483_1932">
<rect width="617" height="292" fill="white"/>
</clipPath>
</defs>
</svg>
